<svg width="940" height="1040" viewBox="0 0 940 1040" fill="none" xmlns="http://www.w3.org/2000/svg">
<path d="M517.442 0.228288C485.797 1.13263 454.152 4.75001 423.049 11.0804C196.833 57.0212 28.6628 236.443 2.98519 466.509C-22.6924 696.755 119.077 977.645 359.036 1031.36C472.054 1056.68 596.283 1025.39 684.166 949.791C779.824 867.314 827.02 743.419 870.419 624.769C906.223 527.1 942.569 426.537 939.857 322.537C933.89 98.621 719.066 -5.55952 517.442 0.228288Z" fill="url(#paint0_radial_65_0)"/>
<path fill-rule="evenodd" clip-rule="evenodd" d="M590.973 216.609C609.573 216.656 624.614 231.775 624.567 250.379L624.118 431.158C624.072 449.762 608.956 464.806 590.357 464.76C571.757 464.714 556.716 449.595 556.762 430.991L557.211 250.211C557.257 231.607 572.373 216.563 590.973 216.609ZM690.908 271.848C709.507 271.907 724.537 287.037 724.478 305.641L724.253 375.931C724.194 394.535 709.068 409.569 690.468 409.509C671.868 409.45 656.838 394.32 656.897 375.716L657.122 305.425C657.181 286.821 672.308 271.788 690.908 271.848ZM486.637 341.249C505.237 341.333 520.247 356.482 520.164 375.086L518.817 675.562C518.734 694.165 503.588 709.179 484.988 709.096C466.388 709.012 451.378 693.863 451.461 675.259L452.808 374.783C452.892 356.18 468.037 341.166 486.637 341.249ZM381.284 585.571C399.884 585.502 415.019 600.527 415.088 619.131L415.761 800.135C415.831 818.739 400.809 833.877 382.209 833.946C363.609 834.015 348.475 818.99 348.405 800.386L347.732 619.382C347.663 600.778 362.685 585.64 381.284 585.571ZM281.615 641.024C300.215 640.965 315.341 655.998 315.401 674.602L315.625 744.668C315.685 763.272 300.655 778.402 282.055 778.461C263.456 778.521 248.329 763.488 248.269 744.884L248.045 674.818C247.985 656.214 263.015 641.084 281.615 641.024Z" fill="white"/>
<defs>
<radialGradient id="paint0_radial_65_0" cx="0" cy="0" r="1" gradientUnits="userSpaceOnUse" gradientTransform="translate(-67.4124 803.341) scale(1455.5 1455.82)">
<stop offset="0.0103967" stop-color="#C5D1E7"/>
<stop offset="0.14061" stop-color="#82C0FF"/>
<stop offset="0.385412" stop-color="#A46DFF"/>
<stop offset="0.625005" stop-color="#FF8488"/>
<stop offset="0.791679" stop-color="#EEC14C"/>
</radialGradient>
</defs>
</svg>
