<svg width="710" height="525" viewBox="0 0 710 525" fill="none" xmlns="http://www.w3.org/2000/svg">
<path style="mix-blend-mode:screen" opacity="0.7" d="M306.373 87.6492L308.693 253.421C308.774 259.162 312.25 265.78 316.455 268.252L532.011 392.615C532.971 393.226 534.082 393.535 535.208 393.504C533.865 394.532 532.012 394.586 529.95 393.391L314.339 268.954C310.134 266.529 306.658 259.901 306.577 254.123L304.258 88.3978C304.199 84.2248 305.973 81.6976 308.541 81.5403C307.207 82.6047 306.333 84.7458 306.373 87.6492Z" fill="url(#paint0_linear_2_587)" fill-opacity="0.85"/>
<g style="mix-blend-mode:screen">
<path style="mix-blend-mode:screen" d="M313.014 81.1882L528.588 205.589C533.149 208.224 536.801 215.119 536.887 221.3L539.207 387.071C539.273 391.795 537.066 395 533.719 395.047C532.476 395.032 531.26 394.675 530.194 394.013L314.62 269.613C310.059 266.978 306.407 260.082 306.321 253.902L304.001 88.1306C303.935 83.4068 306.142 80.2012 309.48 80.1545C310.726 80.1694 311.945 80.5262 313.014 81.1882ZM537.136 387.119L534.816 221.329C534.74 215.933 531.496 209.713 527.592 207.424L312.009 83.0511C311.256 82.5802 310.398 82.3187 309.519 82.2922C307.384 82.3221 306.032 84.6007 306.081 88.1015L308.401 253.873C308.477 259.269 311.721 265.489 315.634 267.778L531.2 392.151C531.952 392.621 532.81 392.883 533.689 392.909C535.833 392.879 537.176 390.582 537.127 387.1L537.136 387.119Z" fill="url(#paint1_linear_2_587)" fill-opacity="0.85"/>
</g>
<path style="mix-blend-mode:screen" opacity="0.7" d="M309.533 83.9261C310.135 83.956 310.72 84.1438 311.232 84.4718L526.807 208.882C530.218 210.851 533.166 216.562 533.233 221.351L535.553 387.122C535.582 389.176 535.005 391.257 533.666 391.276C533.066 391.245 532.483 391.053 531.976 390.72L316.401 266.32C312.981 264.351 310.042 258.64 309.975 253.851L307.655 88.0795C307.626 86.0256 308.194 83.9448 309.533 83.9261Z" fill="url(#paint2_linear_2_587)" fill-opacity="0.85"/>
<path style="mix-blend-mode:screen" opacity="0.7" d="M377.373 42.6492L379.693 208.421C379.774 214.162 383.25 220.78 387.455 223.252L603.011 347.615C603.971 348.226 605.082 348.535 606.208 348.504C604.865 349.532 603.012 349.586 600.95 348.391L385.339 223.954C381.134 221.529 377.658 214.901 377.577 209.122L375.258 43.3978C375.199 39.2248 376.973 36.6975 379.541 36.5402C378.207 37.6047 377.333 39.7458 377.373 42.6492Z" fill="url(#paint3_linear_2_587)"/>
<g style="mix-blend-mode:screen">
<path style="mix-blend-mode:screen" d="M384.014 36.1882L599.588 160.589C604.149 163.224 607.801 170.119 607.887 176.3L610.207 342.071C610.273 346.795 608.066 350 604.719 350.047C603.476 350.032 602.26 349.675 601.194 349.013L385.62 224.613C381.059 221.978 377.407 215.082 377.321 208.902L375.001 43.1306C374.935 38.4068 377.142 35.2012 380.48 35.1545C381.726 35.1694 382.945 35.5262 384.014 36.1882ZM608.136 342.119L605.816 176.329C605.74 170.933 602.496 164.713 598.592 162.424L383.009 38.0511C382.256 37.5802 381.398 37.3187 380.519 37.2922C378.384 37.3221 377.032 39.6007 377.081 43.1015L379.401 208.873C379.477 214.269 382.721 220.489 386.634 222.778L602.2 347.151C602.952 347.621 603.81 347.883 604.689 347.909C606.833 347.879 608.176 345.582 608.127 342.1L608.136 342.119Z" fill="url(#paint4_linear_2_587)"/>
</g>
<path style="mix-blend-mode:screen" opacity="0.7" d="M380.533 38.9261C381.135 38.956 381.72 39.1438 382.232 39.4718L597.807 163.882C601.218 165.851 604.166 171.562 604.233 176.351L606.553 342.122C606.582 344.176 606.005 346.257 604.666 346.276C604.066 346.245 603.483 346.053 602.976 345.72L387.401 221.32C383.981 219.351 381.042 213.64 380.975 208.851L378.655 43.0795C378.626 41.0256 379.194 38.9448 380.533 38.9261Z" fill="url(#paint5_linear_2_587)"/>
<path style="mix-blend-mode:screen" opacity="0.7" d="M377.373 42.6492L379.693 208.421C379.774 214.162 383.25 220.78 387.455 223.252L603.011 347.615C603.971 348.226 605.082 348.535 606.208 348.504C604.865 349.532 603.012 349.586 600.95 348.391L385.339 223.954C381.134 221.529 377.658 214.901 377.577 209.122L375.258 43.3978C375.199 39.2248 376.973 36.6975 379.541 36.5402C378.207 37.6047 377.333 39.7458 377.373 42.6492Z" fill="url(#paint6_linear_2_587)" fill-opacity="0.65"/>
<g style="mix-blend-mode:screen">
<path style="mix-blend-mode:screen" d="M384.014 36.1882L599.588 160.589C604.149 163.224 607.801 170.119 607.887 176.3L610.207 342.071C610.273 346.795 608.066 350 604.719 350.047C603.476 350.032 602.26 349.675 601.194 349.013L385.62 224.613C381.059 221.978 377.407 215.082 377.321 208.902L375.001 43.1306C374.935 38.4068 377.142 35.2012 380.48 35.1545C381.726 35.1694 382.945 35.5262 384.014 36.1882ZM608.136 342.119L605.816 176.329C605.74 170.933 602.496 164.713 598.592 162.424L383.009 38.0511C382.256 37.5802 381.398 37.3187 380.519 37.2922C378.384 37.3221 377.032 39.6007 377.081 43.1015L379.401 208.873C379.477 214.269 382.721 220.489 386.634 222.778L602.2 347.151C602.952 347.621 603.81 347.883 604.689 347.909C606.833 347.879 608.176 345.582 608.127 342.1L608.136 342.119Z" fill="url(#paint7_linear_2_587)" fill-opacity="0.65"/>
</g>
<path style="mix-blend-mode:screen" opacity="0.7" d="M380.533 38.9261C381.135 38.956 381.72 39.1438 382.232 39.4718L597.807 163.882C601.218 165.851 604.166 171.562 604.233 176.351L606.553 342.122C606.582 344.176 606.005 346.257 604.666 346.276C604.066 346.245 603.483 346.053 602.976 345.72L387.401 221.32C383.981 219.351 381.042 213.64 380.975 208.851L378.655 43.0795C378.626 41.0256 379.194 38.9448 380.533 38.9261Z" fill="url(#paint8_linear_2_587)" fill-opacity="0.65"/>
<path style="mix-blend-mode:screen" opacity="0.7" d="M443.433 10.6492L445.753 176.421C445.833 182.162 449.31 188.78 453.515 191.252L669.071 315.615C670.03 316.226 671.141 316.535 672.268 316.504C670.925 317.532 669.071 317.586 667.01 316.391L451.399 191.954C447.194 189.529 443.718 182.901 443.637 177.122L441.317 11.3978C441.259 7.22479 443.033 4.69755 445.6 4.54024C444.267 5.60468 443.392 7.74583 443.433 10.6492Z" fill="url(#paint9_linear_2_587)" fill-opacity="0.45"/>
<g style="mix-blend-mode:screen">
<path style="mix-blend-mode:screen" d="M450.073 4.1882L665.648 128.589C670.208 131.224 673.86 138.119 673.947 144.3L676.267 310.071C676.333 314.795 674.125 318 670.778 318.047C669.536 318.032 668.319 317.675 667.254 317.013L451.679 192.613C447.119 189.978 443.467 183.082 443.38 176.902L441.06 11.1306C440.994 6.40682 443.202 3.20123 446.54 3.15452C447.785 3.16944 449.005 3.52621 450.073 4.1882ZM674.196 310.119L671.875 144.329C671.8 138.933 668.555 132.713 664.651 130.424L449.068 6.05106C448.316 5.58016 447.458 5.3187 446.579 5.29224C444.444 5.32212 443.092 7.60067 443.141 11.1015L445.461 176.873C445.536 182.269 448.781 188.489 452.694 190.778L668.259 315.151C669.012 315.621 669.869 315.883 670.749 315.909C672.892 315.879 674.235 313.582 674.187 310.1L674.196 310.119Z" fill="url(#paint10_linear_2_587)" fill-opacity="0.45"/>
</g>
<path style="mix-blend-mode:screen" opacity="0.7" d="M446.593 6.92606C447.195 6.956 447.78 7.14384 448.292 7.47185L663.867 131.882C667.278 133.851 670.226 139.562 670.293 144.351L672.613 310.122C672.641 312.176 672.064 314.257 670.726 314.276C670.125 314.245 669.543 314.053 669.035 313.72L453.461 189.32C450.041 187.351 447.102 181.64 447.035 176.851L444.715 11.0795C444.686 9.02564 445.254 6.9448 446.593 6.92606Z" fill="url(#paint11_linear_2_587)" fill-opacity="0.45"/>
<g filter="url(#filter0_d_2_587)">
<path d="M344.833 423.003V378.141C344.833 365.796 336.115 350.651 325.425 344.479L271.463 313.617C282.154 319.789 290.872 334.934 290.872 347.279V392.14C290.872 403.912 282.79 429.43 272.8 424.53L315.498 466.528C346.487 450.429 344.833 435.284 344.833 423.003Z" fill="#7598A0" stroke="black" stroke-width="0.0306" stroke-linecap="round"/>
<path d="M317.279 348.424L263.318 317.562C274.009 323.734 282.726 338.879 282.726 351.224V396.086C282.726 407.858 279.99 420.394 263.318 427.711L315.498 457.874C332.806 448.583 336.688 439.293 336.688 426.948V382.086C336.688 369.741 327.97 354.597 317.279 348.424Z" fill="#A9BFC4" stroke="black" stroke-width="0.0306" stroke-linecap="round"/>
<path d="M317.279 348.424L263.318 317.562C274.009 323.734 282.726 338.879 282.726 351.224V380.495L315.498 457.874C332.806 448.583 336.688 439.293 336.688 426.948V382.086C336.688 369.741 327.97 354.597 317.279 348.424Z" fill="#95B1B5" stroke="black" stroke-width="0.0306" stroke-linecap="round"/>
<path d="M263.318 308.971V317.625L315.498 347.724V339.134L263.318 308.971Z" fill="#BADDE0" stroke="black" stroke-width="0.0306"/>
<path d="M263.318 427.711V436.366L315.498 466.528V457.874L263.318 427.711Z" fill="#C5D1D6" stroke="black" stroke-width="0.0306"/>
<path d="M153.678 88.1632V305.281L454.537 479V261.883L153.678 88.1632Z" fill="#C5D1D6" stroke="black" stroke-width="0.0306"/>
<path d="M454.537 261.883V479L470.318 469.837V252.719L454.537 261.883Z" fill="#90ABB2" stroke="black" stroke-width="0.0306"/>
<path d="M153.678 91.9175V294.781L454.537 468.437V265.573L153.678 91.9175Z" fill="#ACC4CC" stroke="black" stroke-width="0.0306"/>
<path d="M153.678 88.1632V291.027L454.537 464.746V261.883L153.678 88.1632Z" fill="#625B70" stroke="black" stroke-width="0.0306"/>
<path d="M454.537 265.637V468.437L470.318 459.337V256.474L454.537 265.637Z" fill="#7C9CA3" stroke="black" stroke-width="0.0306"/>
<path d="M153.678 88.1632L454.537 464.746V261.883L153.678 88.1632Z" fill="#FBFBFF" fill-opacity="0.09" stroke="black" stroke-width="0.0306"/>
<path d="M454.537 261.883V464.746L470.318 455.583V252.719L454.537 261.883Z" fill="#95B1B5" stroke="black" stroke-width="0.0306"/>
<path d="M169.459 79L153.678 88.1632L454.473 261.883L470.318 252.719L169.459 79Z" fill="#C5D1D6" stroke="black" stroke-width="0.0306"/>
<path d="M299.208 381.571L297.553 380.616C297.362 380.489 297.171 380.489 297.044 380.553H296.98L296.153 380.998L296.726 382.016V382.971C296.726 383.48 297.108 384.116 297.553 384.371L298.38 384.88L298.953 385.834L299.78 385.389C299.908 385.325 300.035 385.134 300.035 384.88V382.971C299.971 382.462 299.653 381.825 299.208 381.571Z" fill="#1E8BC3" stroke="black" stroke-width="0.0306" stroke-linecap="round"/>
<path d="M298.38 382.023L296.726 381.068C296.28 380.814 295.898 381.004 295.898 381.513V383.422C295.898 383.932 296.28 384.568 296.726 384.822L298.38 385.777C298.826 386.031 299.207 385.841 299.207 385.331V383.422C299.144 382.913 298.826 382.277 298.38 382.023Z" fill="#242A2D" stroke="black" stroke-width="0.0306" stroke-linecap="round"/>
</g>
<path d="M556.972 385.244C557.333 385.482 557.635 385.805 557.853 386.186C558.071 386.568 558.198 386.997 558.224 387.439C558.235 388.251 557.697 388.595 557.013 388.203C556.654 387.965 556.354 387.643 556.138 387.263C555.922 386.883 555.796 386.456 555.77 386.017C555.759 385.205 556.297 384.861 556.972 385.244Z" fill="#4F5569"/>
<g filter="url(#filter1_d_2_587)">
<path style="mix-blend-mode:screen" opacity="0.7" d="M443.528 294.431V266.905C443.528 265.952 442.856 264.845 442.028 264.425L399.582 243.279C399.393 243.175 399.174 243.121 398.95 243.124C399.219 242.956 399.587 242.952 399.993 243.155L442.45 264.314C443.278 264.726 443.95 265.834 443.95 266.794V294.311C443.95 295.004 443.591 295.42 443.081 295.44C443.348 295.266 443.528 294.913 443.528 294.431Z" fill="url(#paint12_linear_2_587)"/>
<g style="mix-blend-mode:screen">
<path style="mix-blend-mode:screen" d="M442.175 295.819L400.523 274.585C399.642 274.136 398.95 272.978 398.95 271.948V244.316C398.95 243.529 399.389 243 400.041 243C400.283 243.005 400.519 243.068 400.724 243.18L442.376 264.415C443.257 264.864 443.95 266.022 443.95 267.052V294.684C443.95 295.471 443.511 296 442.861 296C442.618 295.995 442.382 295.932 442.175 295.819ZM399.353 244.313V271.948C399.353 272.847 399.968 273.891 400.723 274.282L442.376 295.511C442.521 295.592 442.688 295.637 442.859 295.644C443.275 295.644 443.545 295.267 443.545 294.684V267.052C443.545 266.153 442.93 265.109 442.174 264.718L400.523 243.489C400.378 243.408 400.212 243.363 400.041 243.356C399.623 243.356 399.355 243.736 399.355 244.316L399.353 244.313Z" fill="url(#paint13_linear_2_587)"/>
</g>
<path style="mix-blend-mode:screen" opacity="0.7" d="M442.591 295.44C442.472 295.433 442.358 295.401 442.258 295.346L400.18 274.313C399.514 273.98 398.95 273.031 398.95 272.24V244.873C398.95 244.534 399.069 244.192 399.333 244.192C399.451 244.198 399.565 244.231 399.664 244.287L441.741 265.319C442.409 265.651 442.972 266.601 442.972 267.392V294.759C442.972 295.098 442.854 295.44 442.591 295.44Z" fill="url(#paint14_linear_2_587)"/>
</g>
<g filter="url(#filter2_d_2_587)">
<path d="M68.5929 452.401C68.5433 466.8 89.5999 478.556 115.628 478.646C141.655 478.736 162.793 467.141 162.842 452.726L162.937 425.261L68.6876 424.936L68.5929 452.401Z" fill="#885AD4" stroke="black" stroke-width="0.0174643" stroke-linecap="round"/>
<path d="M69.4925 436.672C67.5536 437.175 117.599 468.862 117.599 468.862L162.913 437.356L101.333 426.085C101.333 426.085 71.4313 436.169 69.4925 436.672Z" fill="#25166B" fill-opacity="0.31" stroke="black" stroke-opacity="0.21" stroke-width="0.0174643" stroke-linecap="round"/>
<path d="M31.6484 416.087L115.281 461.58L199.191 416.664L199.203 413.093L115.576 371.187L31.6484 416.087Z" fill="white" stroke="black" stroke-width="0.0174643"/>
<path d="M31.6607 412.516L115.294 458.009L199.203 413.093L115.588 367.617L31.6607 412.516Z" fill="#885AD4" stroke="black" stroke-width="0.0174643"/>
<path d="M31.6484 416.087L115.282 461.58L115.294 458.009L31.6607 412.516L31.6484 416.087Z" fill="#885AD4" stroke="black" stroke-width="0.0174643"/>
<path d="M156.182 428.134L115.826 405.713C114.983 405.25 113.907 405.509 113.412 406.281C112.916 407.053 113.194 408.057 114.02 408.521L152.531 429.997C155.94 431.902 158.042 435.348 158.029 439.067L157.892 478.693C157.889 479.598 158.679 480.341 159.648 480.345L159.788 480.345C160.757 480.349 161.552 479.611 161.555 478.706L161.698 437.22C161.711 433.485 159.61 430.038 156.182 428.134Z" fill="#5E76F8" stroke="black" stroke-width="0.0174643" stroke-linecap="round"/>
<path d="M159.986 463.989C158.154 463.982 156.635 465.294 156.506 466.988L154.686 489.263C154.539 491.155 156.118 492.757 158.143 492.764L161.648 492.776C163.673 492.783 165.281 491.176 165.129 489.299L163.462 467.012C163.327 465.317 161.817 463.995 159.986 463.989Z" fill="url(#paint15_linear_2_587)" stroke="black" stroke-width="0.0174643" stroke-linecap="round"/>
<path d="M160.001 454.609C157.835 454.601 156.068 456.241 156.061 458.265C156.054 460.289 157.809 461.941 159.975 461.948C162.141 461.955 163.908 460.316 163.915 458.292C163.922 456.268 162.167 454.616 160.001 454.609Z" fill="#5E76F8" stroke="black" stroke-width="0.0174643" stroke-linecap="round"/>
</g>
<path d="M420.49 266.16C421.73 266.88 422.79 268 423.69 269.54C424.59 271.08 425.03 272.56 425.03 273.98C425.03 275.38 424.57 276.34 423.67 276.86C422.77 277.4 421.69 277.3 420.45 276.58C419.21 275.86 418.15 274.74 417.27 273.2C416.39 271.66 415.95 270.18 415.95 268.74C415.95 267.32 416.39 266.36 417.29 265.84C418.19 265.34 419.25 265.44 420.49 266.16Z" fill="#FF8488" stroke="#2D2D2D" stroke-opacity="0.03" stroke-width="1.2" stroke-miterlimit="10" stroke-linecap="round" stroke-linejoin="round"/>
<path d="M66.0401 487.243C65.9228 494.102 70.6543 496.983 76.6315 493.685C82.5885 490.406 87.5297 482.189 87.647 475.33C87.7639 468.491 83.0329 465.59 77.0559 468.868C71.0987 472.167 66.1774 480.384 66.0401 487.243Z" fill="#DF9530" stroke="black" stroke-width="0.02" stroke-linecap="round"/>
<path d="M105.973 513.709C105.822 522.548 111.919 526.273 119.633 522.024C127.327 517.795 133.689 507.202 133.84 498.364C133.991 489.545 127.894 485.8 120.2 490.049C112.486 494.298 106.124 504.891 105.973 513.709Z" fill="#AABEEB" stroke="black" stroke-width="0.02" stroke-linecap="round"/>
<path d="M17.084 428.117C9.3702 432.366 3.02814 442.959 2.85734 451.777C2.77663 456.496 4.48131 459.746 7.27832 461.114L56.6995 484.863L109.701 522.654C107.327 521.114 105.9 518.029 105.973 513.709C106.124 504.891 112.486 494.298 120.2 490.049C123.209 488.4 125.957 487.967 128.206 488.586L85.4383 469.972C73.3862 464.725 62.2045 457.713 52.2296 449.141L28.14 428.446C25.6827 425.924 21.6678 425.595 17.084 428.117Z" fill="#D2DDF4" stroke="black" stroke-width="0.02" stroke-linecap="round"/>
<path d="M110.057 522.88C110.077 522.881 110.057 522.88 110.057 522.88V522.88Z" fill="#7779BD" stroke="black" stroke-width="0.02" stroke-linecap="round"/>
<path d="M109.468 512.889C109.339 520.448 114.565 523.638 121.148 520.01C127.731 516.382 133.166 507.333 133.296 499.775C133.425 492.236 128.199 489.026 121.616 492.654C115.033 496.282 109.597 505.35 109.468 512.889Z" fill="#9AB2DF" stroke="black" stroke-width="0.02" stroke-linecap="round"/>
<path d="M113.509 512.858C113.399 519.317 117.853 522.034 123.487 518.93C129.1 515.845 133.753 508.104 133.863 501.664C133.974 495.225 129.52 492.489 123.906 495.593C118.272 498.677 113.619 506.419 113.509 512.858Z" fill="#AABEEB" stroke="black" stroke-width="0.02" stroke-linecap="round"/>
<path d="M114.424 508.473C114.424 508.473 120.786 511.962 123.975 514.917C130.084 510.941 132.934 505.729 133.026 500.37C133.117 495.031 129.415 492.767 124.771 495.328C120.247 497.831 115.703 502.694 114.424 508.473Z" fill="#C0CFF0" stroke="black" stroke-width="0.02" stroke-linecap="round"/>
<path d="M48.5907 450.219C42.9164 453.342 38.2423 461.144 38.1312 467.643C38.0717 471.122 39.3312 473.504 41.3741 474.519L77.7804 492.004L116.159 519.344C114.418 518.214 113.988 516.427 114.043 513.247C114.154 506.748 118.848 498.947 124.502 495.824C126.703 494.601 128.749 494.296 130.381 494.744L85.5283 475.234L56.7274 450.478C54.9395 448.587 51.983 448.357 48.5907 450.219Z" fill="#D2DDF4" stroke="black" stroke-width="0.02" stroke-linecap="round"/>
<path d="M33.4118 439.498C26.7681 443.165 21.2713 452.292 21.141 459.911C21.0712 463.99 22.5438 466.776 24.944 467.957L67.5798 488.449L112.657 520.585C111.151 519.719 110.017 517.059 110.08 513.34C110.211 505.721 115.708 496.593 122.351 492.926C124.936 491.51 127.323 491.131 129.254 491.664L76.6974 468.782L42.9484 439.781C40.8253 437.604 37.3695 437.325 33.4118 439.498Z" fill="#C0CFF0" stroke="black" stroke-width="0.02" stroke-linecap="round"/>
<path d="M120.858 494.881L72.8847 470.657C66.9552 467.655 61.2328 464.237 55.7972 460.424L11.8174 429.627C-3.59239 437.085 0.639656 458.64 7.25867 461.094L51.8985 482.54C55.1127 484.075 58.1822 485.888 61.0672 487.958L109.701 522.654C107.327 521.114 106.23 517.434 107.463 511.995C108.847 505.937 114.395 496.131 120.858 494.881Z" fill="#E9EEFA" stroke="black" stroke-width="0.02" stroke-linecap="round"/>
<path d="M46.299 475.443C46.2644 477.463 46.676 479.13 47.4147 480.383L51.8984 482.54C55.1127 484.075 58.1821 485.888 61.0671 487.958L70.395 494.598C69.1174 493.276 68.3931 491.183 68.4399 488.444C68.5353 482.865 71.847 476.36 76.3161 472.356L72.925 470.638C66.9955 467.636 61.2731 464.218 55.8375 460.404L54.4145 459.4C49.8274 463.282 46.3951 469.824 46.299 475.443Z" fill="#E1E8F8" stroke="black" stroke-width="0.02" stroke-linecap="round"/>
<path d="M54.6258 456.403C48.8302 459.604 44.0331 467.583 43.9196 474.222C43.8628 477.542 44.9826 479.901 46.8235 481.033L68.2314 493.621C66.8135 492.317 65.9909 490.122 66.0402 487.243C66.1571 480.404 71.0983 472.187 77.0756 468.889C79.9026 467.337 82.4456 467.18 84.3489 468.173L62.2333 456.033C61.9171 455.808 61.5802 455.622 61.2026 455.475C59.4145 454.765 57.1297 455.026 54.6258 456.403Z" fill="#FFC31F" stroke="black" stroke-width="0.02" stroke-linecap="round"/>
<path style="mix-blend-mode:screen" opacity="0.7" d="M379.571 437.864V282.586C379.571 277.208 376.187 270.964 372.017 268.594L158.223 149.3C157.272 148.715 156.165 148.412 155.039 148.425C156.395 147.481 158.25 147.455 160.294 148.6L374.143 267.965C378.313 270.291 381.696 276.543 381.696 281.956V437.191C381.696 441.1 379.887 443.443 377.318 443.557C378.666 442.578 379.571 440.584 379.571 437.864Z" fill="url(#paint16_linear_2_587)"/>
<g style="mix-blend-mode:screen">
<path style="mix-blend-mode:screen" d="M372.84 443.828L159.028 324.499C154.505 321.972 150.95 315.466 150.95 309.677V154.398C150.95 149.973 153.202 147 156.549 147C157.792 147.031 159.003 147.381 160.059 148.014L373.872 267.344C378.395 269.871 381.95 276.377 381.95 282.166V437.445C381.95 441.869 379.697 444.843 376.359 444.843C375.114 444.812 373.9 444.462 372.84 443.828ZM153.021 154.38V309.677C153.021 314.731 156.178 320.599 160.05 322.794L373.872 442.097C374.617 442.548 375.472 442.804 376.35 442.84C378.485 442.84 379.869 440.724 379.869 437.445V282.166C379.869 277.112 376.712 271.244 372.831 269.049L159.028 149.746C158.282 149.295 157.428 149.039 156.549 149.003C154.405 149.003 153.03 151.136 153.03 154.398L153.021 154.38Z" fill="url(#paint17_linear_2_587)"/>
</g>
<path style="mix-blend-mode:screen" opacity="0.7" d="M376.359 441.31C375.758 441.274 375.176 441.09 374.668 440.776L160.855 321.438C157.472 319.549 154.604 314.163 154.604 309.677V154.398C154.604 152.474 155.21 150.533 156.549 150.533C157.149 150.57 157.729 150.757 158.232 151.075L372.044 270.404C375.437 272.293 378.295 277.68 378.295 282.166V437.445C378.295 439.368 377.698 441.31 376.359 441.31Z" fill="url(#paint18_linear_2_587)"/>
<path d="M159.173 168.311L156.188 166.64V163.239L159.173 164.909V168.311Z" fill="#2191F2"/>
<path d="M174.008 175.682L160.331 168.057V166.317L174.008 173.951V175.682Z" fill="#E6E7E8"/>
<path d="M159.173 187.4L156.188 185.73V182.328L159.173 183.999V187.4Z" fill="#2191F2"/>
<path d="M174.008 194.772L160.331 187.147V185.406L174.008 193.041V194.772Z" fill="#E6E7E8"/>
<path d="M159.173 212.244L156.188 210.574V207.181L159.173 208.842V212.244Z" fill="#2191F2"/>
<path d="M174.008 219.624L160.331 211.99V210.259L174.008 217.884V219.624Z" fill="#E6E7E8"/>
<path d="M159.173 218.662L156.188 217.001V213.599L159.173 215.269V218.662Z" fill="#2191F2"/>
<path d="M174.008 226.043L160.331 218.409V216.677L174.008 224.303V226.043Z" fill="#E6E7E8"/>
<path d="M163.325 175.621L160.331 173.951V170.558L163.325 172.22V175.621Z" fill="#2191F2"/>
<path d="M178.151 183.002L164.483 175.368V173.636L178.151 181.261V183.002Z" fill="#E6E7E8"/>
<path d="M163.325 180.623L160.331 178.953V175.551L163.325 177.221V180.623Z" fill="#2191F2"/>
<path d="M183.344 190.889L164.483 180.369V178.629L183.344 189.158V190.889Z" fill="#E6E7E8"/>
<path d="M163.325 194.501L160.331 192.831V189.438L163.325 191.099V194.501Z" fill="#2191F2"/>
<path d="M187.433 207.058L164.483 194.247V192.516L187.433 205.318V207.058Z" fill="#E6E7E8"/>
<path d="M163.325 199.503L160.331 197.833V194.431L163.325 196.101V199.503Z" fill="#2191F2"/>
<path d="M179.988 207.898L164.483 199.249V197.509L179.988 206.166V207.898Z" fill="#E6E7E8"/>
<path d="M166.844 206.026L164.483 204.706V202.021L166.844 203.342V206.026Z" fill="#2191F2"/>
<path d="M193.294 220.07L167.757 205.825V204.452L193.294 218.706V220.07Z" fill="#E6E7E8"/>
<path d="M166.844 209.97L164.483 208.65V205.965L166.844 207.286V209.97Z" fill="#2191F2"/>
<path d="M183.344 218.461L167.757 209.769V208.396L183.344 217.097V218.461Z" fill="#E6E7E8"/>
<path d="M159.173 225.85L156.188 224.18V220.779L159.173 222.449V225.85Z" fill="#2191F2"/>
<path d="M174.008 233.222L160.331 225.597V223.857L174.008 231.491V233.222Z" fill="#E6E7E8"/>
<path d="M159.173 244.94L156.188 243.27V239.868L159.173 241.538V244.94Z" fill="#2191F2"/>
<path d="M174.008 252.312L160.331 244.686V242.946L174.008 250.58V252.312Z" fill="#E6E7E8"/>
<path d="M159.173 269.783L156.188 268.122V264.72L159.173 266.382V269.783Z" fill="#2191F2"/>
<path d="M174.008 277.164L160.331 269.53V267.798L174.008 275.424V277.164Z" fill="#E6E7E8"/>
<path d="M159.173 276.211L156.188 274.541V271.139L159.173 272.809V276.211Z" fill="#2191F2"/>
<path d="M174.008 283.583L160.331 275.949V274.217L174.008 281.842V283.583Z" fill="#E6E7E8"/>
<path d="M163.325 233.161L160.331 231.499V228.098L163.325 229.759V233.161Z" fill="#2191F2"/>
<path d="M178.151 240.541L164.483 232.907V231.176L178.151 238.801V240.541Z" fill="#E6E7E8"/>
<path d="M163.325 238.163L160.331 236.493V233.091L163.325 234.761V238.163Z" fill="#2191F2"/>
<path d="M183.344 248.429L164.483 237.909V236.169L183.344 246.698V248.429Z" fill="#E6E7E8"/>
<path d="M163.325 252.041L160.331 250.37V246.969L163.325 248.639V252.041Z" fill="#2191F2"/>
<path d="M187.433 264.598L164.483 251.787V250.056L187.433 262.858V264.598Z" fill="#E6E7E8"/>
<path d="M163.325 257.043L160.331 255.372V251.971L163.325 253.641V257.043Z" fill="#2191F2"/>
<path d="M179.988 265.437L164.483 256.789V255.049L179.988 263.706V265.437Z" fill="#E6E7E8"/>
<path d="M166.844 263.566L164.483 262.246V259.561L166.844 260.881V263.566Z" fill="#2191F2"/>
<path d="M193.294 277.61L167.757 263.365V261.992L193.294 276.246V277.61Z" fill="#E6E7E8"/>
<path d="M166.844 267.51L164.483 266.19V263.505L166.844 264.825V267.51Z" fill="#2191F2"/>
<path d="M183.344 276.001L167.757 267.309V265.936L183.344 274.637V276.001Z" fill="#E6E7E8"/>
<path d="M206.294 192.831C205.936 192.604 205.639 192.299 205.427 191.94C205.215 191.582 205.093 191.18 205.072 190.767C205.072 190.006 205.615 189.683 206.294 190.059C206.65 190.287 206.946 190.594 207.157 190.954C207.368 191.314 207.487 191.718 207.506 192.131C207.506 192.892 206.963 193.207 206.294 192.831Z" fill="#4F5569"/>
<path d="M225.779 203.709L211.133 195.542V192.769L225.779 200.946V203.709Z" fill="#F5AB35"/>
<path d="M256.101 220.639L229.397 205.729V202.966L256.101 217.867V220.639Z" fill="#E4464A"/>
<path d="M206.294 200.981C205.936 200.754 205.639 200.449 205.427 200.09C205.215 199.732 205.093 199.33 205.072 198.917C205.072 198.156 205.615 197.841 206.294 198.217C206.649 198.445 206.944 198.751 207.155 199.109C207.365 199.468 207.486 199.869 207.506 200.281C207.506 201.042 206.963 201.357 206.294 200.981Z" fill="#4F5569"/>
<path d="M247.625 224.058L211.133 203.692V200.919L247.625 221.294V224.058Z" fill="#E4464A"/>
<path d="M315.633 262.018L251.243 226.078V223.306L315.633 259.246V262.018Z" fill="#92C967"/>
<path d="M206.294 209.139C205.94 208.915 205.645 208.614 205.433 208.261C205.221 207.907 205.098 207.51 205.072 207.102C205.072 206.332 205.615 206.018 206.294 206.394C206.649 206.621 206.944 206.927 207.155 207.285C207.365 207.644 207.486 208.046 207.506 208.457C207.506 209.201 206.963 209.515 206.294 209.139Z" fill="#4F5569"/>
<path d="M225.779 220.018L211.133 211.85V209.078L225.779 217.246V220.018Z" fill="#E4464A"/>
<path d="M206.294 217.289C205.936 217.063 205.639 216.758 205.427 216.399C205.215 216.04 205.093 215.638 205.072 215.226C205.072 214.456 205.615 214.141 206.294 214.517C206.649 214.745 206.944 215.051 207.155 215.409C207.365 215.768 207.486 216.169 207.506 216.581C207.506 217.351 206.963 217.665 206.294 217.289Z" fill="#4F5569"/>
<path d="M219.609 224.731L211.133 220V217.228L219.609 221.959V224.731Z" fill="#E4464A"/>
<path d="M247.625 240.366L223.228 226.742V223.979L247.625 237.594V240.366Z" fill="white"/>
<path d="M206.294 225.466C205.936 225.239 205.639 224.934 205.427 224.575C205.215 224.217 205.093 223.815 205.072 223.402C205.072 222.641 205.615 222.326 206.294 222.702C206.649 222.93 206.944 223.236 207.155 223.594C207.365 223.953 207.486 224.354 207.506 224.766C207.506 225.466 206.963 225.815 206.294 225.466Z" fill="#4F5569"/>
<path d="M233.097 240.41L218.461 232.234V229.471L233.097 237.638V240.41Z" fill="white"/>
<path d="M268.947 260.409L236.715 242.43V239.658L268.947 257.646V260.409Z" fill="#2191F2"/>
<path d="M206.294 233.598C205.935 233.371 205.638 233.064 205.425 232.704C205.213 232.344 205.092 231.94 205.072 231.526C205.072 230.765 205.615 230.45 206.294 230.826C206.649 231.054 206.944 231.359 207.155 231.718C207.365 232.076 207.486 232.478 207.506 232.89C207.506 233.651 206.963 233.965 206.294 233.598Z" fill="#4F5569"/>
<path d="M328.216 301.649L218.461 240.393V237.621L328.216 298.877V301.649Z" fill="#92C967"/>
<path d="M347.475 312.396L332.658 304.124V301.352L347.475 309.624V312.396Z" fill="#F5AB35"/>
<path d="M347.475 312.169L332.658 303.896V301.124L347.475 309.397V312.169Z" fill="#F5AB35"/>
<path d="M206.294 241.748C205.936 241.521 205.639 241.216 205.427 240.858C205.215 240.499 205.093 240.097 205.072 239.684C205.072 238.915 205.615 238.6 206.294 238.976C206.649 239.204 206.944 239.509 207.155 239.868C207.365 240.227 207.486 240.628 207.506 241.04C207.506 241.809 206.963 242.124 206.294 241.748Z" fill="#4F5569"/>
<path d="M378.123 337.659L226.864 253.239V250.467L378.123 334.887V337.659Z" fill="#2191F2"/>
<path d="M206.294 249.898C205.936 249.672 205.639 249.366 205.427 249.008C205.215 248.649 205.093 248.247 205.072 247.835C205.072 247.074 205.615 246.75 206.294 247.126C206.649 247.354 206.944 247.659 207.155 248.018C207.365 248.377 207.486 248.778 207.506 249.19C207.506 249.951 206.963 250.274 206.294 249.898Z" fill="#4F5569"/>
<path d="M318.184 312.352L226.864 261.389V258.617L318.184 309.58V312.352Z" fill="#2191F2"/>
<path d="M347.475 328.705L322.083 314.53V311.758L347.475 325.933V328.705Z" fill="#92C967"/>
<path d="M206.294 258.048C205.936 257.821 205.639 257.516 205.427 257.158C205.215 256.799 205.093 256.397 205.072 255.984C205.072 255.224 205.615 254.909 206.294 255.285C206.649 255.513 206.944 255.818 207.155 256.177C207.365 256.535 207.486 256.937 207.506 257.349C207.506 258.109 206.963 258.424 206.294 258.048Z" fill="#4F5569"/>
<path d="M226.864 269.539L218.461 264.843V262.08L226.864 266.767V269.539Z" fill="#E4464A"/>
<path d="M206.294 266.093C205.936 265.867 205.639 265.561 205.427 265.203C205.215 264.844 205.093 264.442 205.072 264.03C205.072 263.269 205.615 262.954 206.294 263.33C206.649 263.558 206.944 263.863 207.155 264.222C207.365 264.58 207.486 264.982 207.506 265.394C207.506 266.154 206.963 266.469 206.294 266.093Z" fill="#4F5569"/>
<path d="M233.097 281.064L218.461 272.888V270.125L233.097 278.292V281.064Z" fill="white"/>
<path d="M268.947 301.072L236.715 283.084V280.312L268.947 298.3V301.072Z" fill="#2191F2"/>
<path d="M206.294 274.252C205.936 274.025 205.639 273.72 205.427 273.362C205.215 273.003 205.093 272.601 205.072 272.188C205.072 271.419 205.615 271.104 206.294 271.48C206.649 271.708 206.944 272.013 207.155 272.372C207.365 272.73 207.486 273.132 207.506 273.544C207.506 274.305 206.963 274.628 206.294 274.252Z" fill="#4F5569"/>
<path d="M328.216 342.303L218.461 281.047V278.275L328.216 339.531V342.303Z" fill="#92C967"/>
<path d="M347.475 353.05L332.658 344.778V342.014L347.475 350.278V353.05Z" fill="#F5AB35"/>
<path d="M347.475 352.823L332.658 344.55V341.778L347.475 350.051V352.823Z" fill="#F5AB35"/>
<path d="M206.294 282.402C205.936 282.175 205.639 281.87 205.427 281.512C205.215 281.153 205.093 280.751 205.072 280.338C205.072 279.569 205.615 279.254 206.294 279.63C206.649 279.858 206.944 280.163 207.155 280.522C207.365 280.88 207.486 281.282 207.506 281.694C207.506 282.463 206.963 282.778 206.294 282.402Z" fill="#4F5569"/>
<path d="M378.123 378.313L226.864 293.893V291.12L378.123 375.541V378.313Z" fill="#E4464A"/>
<path d="M206.294 290.552C205.936 290.325 205.639 290.02 205.427 289.662C205.215 289.303 205.093 288.901 205.072 288.488C205.072 287.728 205.615 287.404 206.294 287.78C206.65 288.009 206.946 288.316 207.157 288.676C207.368 289.036 207.487 289.439 207.506 289.853C207.506 290.613 206.963 290.928 206.294 290.552Z" fill="#4F5569"/>
<path d="M254.12 317.249L226.864 302.043V299.27L254.12 314.477V317.249Z" fill="#2191F2"/>
<path d="M318.184 353.006L258.896 319.917V317.145L318.184 350.234V353.006Z" fill="white"/>
<path d="M347.475 369.359L322.083 355.184V352.412L347.475 366.587V369.359Z" fill="#92C967"/>
<path d="M206.294 298.702C205.936 298.475 205.639 298.17 205.427 297.812C205.215 297.453 205.093 297.051 205.072 296.638C205.072 295.878 205.615 295.563 206.294 295.939C206.649 296.166 206.944 296.472 207.155 296.831C207.365 297.189 207.486 297.591 207.506 298.002C207.506 298.763 206.963 299.078 206.294 298.702Z" fill="#4F5569"/>
<path d="M226.864 310.193L218.461 305.505V302.733L226.864 307.42V310.193Z" fill="#F5AB35"/>
<path d="M206.294 306.791C205.936 306.564 205.639 306.259 205.427 305.9C205.215 305.542 205.093 305.14 205.072 304.727C205.072 303.966 205.615 303.652 206.294 304.028C206.649 304.255 206.944 304.561 207.155 304.919C207.365 305.278 207.486 305.679 207.506 306.091C207.506 306.791 206.963 307.123 206.294 306.791Z" fill="#4F5569"/>
<path d="M233.097 321.718L218.461 313.542V310.778L233.097 318.946V321.718Z" fill="white"/>
<path d="M268.947 341.726L236.715 323.738V320.966L268.947 338.954V341.726Z" fill="#2191F2"/>
<path d="M206.294 314.906C205.936 314.679 205.639 314.374 205.427 314.015C205.215 313.657 205.093 313.255 205.072 312.842C205.072 312.073 205.615 311.758 206.294 312.134C206.649 312.361 206.944 312.667 207.155 313.026C207.365 313.384 207.486 313.786 207.506 314.198C207.506 314.967 206.963 315.282 206.294 314.906Z" fill="#4F5569"/>
<path d="M328.216 382.957L218.461 321.7V318.928L328.216 380.185V382.957Z" fill="#92C967"/>
<path d="M347.475 393.704L332.658 385.431V382.668L347.475 390.932V393.704Z" fill="#F5AB35"/>
<path d="M347.475 393.476L332.658 385.204V382.432L347.475 390.704V393.476Z" fill="#92C967"/>
<path d="M206.294 323.056C205.936 322.829 205.639 322.524 205.427 322.165C205.215 321.807 205.093 321.405 205.072 320.992C205.072 320.223 205.615 319.908 206.294 320.284C206.649 320.512 206.944 320.817 207.155 321.176C207.365 321.534 207.486 321.936 207.506 322.348C207.506 323.117 206.963 323.406 206.294 323.056Z" fill="#4F5569"/>
<path d="M378.123 418.967L226.864 334.546V331.774L378.123 416.195V418.967Z" fill="#2191F2"/>
<path d="M206.294 331.206C205.936 330.979 205.639 330.674 205.427 330.315C205.215 329.957 205.093 329.555 205.072 329.142C205.072 328.381 205.615 328.067 206.294 328.443C206.649 328.67 206.944 328.976 207.155 329.334C207.365 329.693 207.486 330.094 207.506 330.506C207.506 331.276 206.963 331.582 206.294 331.206Z" fill="#4F5569"/>
<path d="M318.184 393.66L226.864 342.696V339.924L318.184 390.888V393.66Z" fill="white"/>
<path d="M347.475 410.013L322.083 395.838V393.066L347.475 407.241V410.013Z" fill="#E4464A"/>
<path d="M378.123 427.117L352.731 412.942V410.17L378.123 424.345V427.117Z" fill="white"/>
<path d="M226.864 350.846L218.461 346.159V343.387L226.864 348.074V350.846Z" fill="#F5AB35"/>
<path d="M206.294 350.733C205.935 350.505 205.638 350.199 205.425 349.838C205.213 349.478 205.092 349.074 205.072 348.66C205.072 347.899 205.615 347.585 206.294 347.961C206.649 348.188 206.944 348.494 207.155 348.852C207.365 349.211 207.486 349.613 207.506 350.024C207.506 350.785 206.963 351.1 206.294 350.733Z" fill="#4F5569"/>
<path d="M532.779 457.389L506.239 424.102L506.412 416.395L533.567 421.885L533.364 430.969L514.452 426.007L532.981 448.372L532.779 457.389Z" fill="#FF8488" fill-opacity="0.78"/>
<path d="M506.528 423.984L532.512 456.566L532.693 448.498L513.585 425.445L533.09 430.557L533.27 422.162L506.687 416.789L506.528 423.984ZM533.047 458.211L532.57 457.607L505.95 424.236L505.957 424.101L506.138 416L506.463 416.067L533.863 421.6L533.646 431.38L533.307 431.288L515.319 426.578L533.27 448.238L533.263 448.372L533.047 458.211Z" fill="#FF8488" fill-opacity="0.78"/>
<path d="M535.127 465.297L545.898 423.967L551.54 428.03L540.653 469.285L535.127 465.297Z" fill="#FF8488" fill-opacity="0.78"/>
<path d="M535.467 465.154L540.494 468.773L551.2 428.173L546.064 424.479L535.467 465.154ZM540.819 469.797L534.787 465.448L534.853 465.205L545.732 423.455L551.872 427.879L540.819 469.797Z" fill="#FF8488" fill-opacity="0.78"/>
<path d="M553.078 472.055L553.28 463.03L572.229 467.748L553.671 445.535L553.873 436.577L580.435 469.814L580.262 477.462L553.078 472.055Z" fill="#FF8488" fill-opacity="0.78"/>
<path d="M553.367 471.77L579.987 477.075L580.146 469.939L554.14 437.4L553.959 445.4L573.088 468.302L553.562 463.442L553.367 471.77ZM580.543 477.856L580.218 477.789L552.789 472.332L553.006 462.619L553.338 462.703L571.376 467.203L553.381 445.66V445.526L553.598 435.754L554.075 436.35L580.724 469.688V469.822L580.543 477.856Z" fill="#FF8488" fill-opacity="0.78"/>
<path d="M420.176 358.803L359.724 327.875C357.089 326.527 354.95 322.905 354.95 319.791V293.706C354.95 290.592 357.089 289.159 359.724 290.507L420.176 321.436C422.81 322.788 424.95 326.405 424.95 329.519V355.604C424.95 358.718 422.81 360.151 420.176 358.803Z" fill="#3C48A5"/>
<path d="M363.6 317.047V305.103L365.954 306.304V311.01L370.573 313.373V308.667L372.932 309.873V321.821L370.573 320.616V315.39L365.954 313.028V318.253L363.6 317.047Z" fill="white"/>
<path d="M377.999 324.412V314.485L374.535 312.715V310.693L383.813 315.44V317.461L380.354 315.695V325.618L377.999 324.412Z" fill="white"/>
<path d="M385.302 328.151V316.203L388.83 318.005L390.946 327.242L393.04 320.161L396.577 321.972V333.92L394.387 332.8V323.393L392.069 331.614L389.801 330.449L387.492 319.865V329.268L385.302 328.151Z" fill="white"/>
<path d="M398.982 335.15V323.299L401.341 324.505V334.342L407.201 337.343V339.352L398.982 335.15Z" fill="white"/>
<path d="M408.42 336.908L410.651 337.81C410.715 338.358 410.903 338.865 411.214 339.328C411.526 339.787 411.888 340.124 412.296 340.335C412.763 340.57 413.162 340.579 413.487 340.359C413.808 340.136 413.972 339.633 413.972 338.849C413.972 338.114 413.808 337.485 413.491 336.953C413.166 336.421 412.749 336.023 412.236 335.759C411.595 335.435 411.017 335.427 410.504 335.747L408.69 334.55L409.835 328.918L415.755 331.947V334.091L411.535 331.931L411.182 333.782C411.682 333.782 412.19 333.912 412.713 334.18C413.702 334.688 414.55 335.487 415.237 336.58C415.929 337.672 416.272 338.808 416.272 339.986C416.272 340.968 415.993 341.707 415.434 342.19C414.678 342.856 413.624 342.844 412.273 342.154C411.196 341.602 410.316 340.859 409.638 339.917C408.96 338.979 408.553 337.972 408.42 336.908Z" fill="white"/>
<path d="M575.176 314.802L514.724 283.872C512.089 282.524 509.95 278.905 509.95 275.79V249.704C509.95 246.59 512.089 245.157 514.724 246.509L575.176 277.437C577.81 278.786 579.95 282.404 579.95 285.52V311.602C579.95 314.718 577.81 316.15 575.176 314.802Z" fill="#5C65AD"/>
<path d="M530.69 267.283L533.036 268.486V276.047C533.036 277.037 532.953 277.752 532.784 278.199C532.555 278.778 532.142 279.124 531.542 279.238C530.942 279.352 530.149 279.159 529.169 278.655C528.014 278.066 527.126 277.283 526.507 276.304C525.884 275.327 525.572 274.198 525.568 272.918L527.79 273.794C527.817 274.491 527.914 275.027 528.083 275.396C528.34 275.955 528.725 276.368 529.247 276.634C529.769 276.902 530.145 276.94 530.36 276.744C530.58 276.55 530.69 275.966 530.69 275.002V267.283Z" fill="white"/>
<path d="M541.736 280.155L540.128 274.899L538.547 278.525L541.736 280.155ZM546.074 287.103L543.509 285.79L542.492 282.554L537.823 280.167L536.861 282.388L534.36 281.11L538.909 271.488L541.401 272.763L546.074 287.103Z" fill="white"/>
<path d="M549.094 288.646L544.92 274.566L547.477 275.871L550.432 286.225L553.29 278.847L555.792 280.126L551.609 289.935L549.094 288.646Z" fill="white"/>
<path d="M561.972 290.507L560.364 285.252L558.783 288.879L561.972 290.507ZM566.311 297.455L563.745 296.144L562.728 292.909L558.059 290.522L557.097 292.742L554.596 291.461L559.145 281.842L561.633 283.117L566.311 297.455Z" fill="white"/>
<path d="M649.176 274.804L588.724 243.872C586.089 242.524 583.95 238.905 583.95 235.788V209.707C583.95 206.592 586.089 205.158 588.724 206.508L649.176 237.436C651.81 238.786 653.95 242.403 653.95 245.52V271.603C653.95 274.718 651.81 276.15 649.176 274.804Z" fill="#666FAF"/>
<path d="M610.82 238.072L613.106 239.983C612.753 241.108 612.176 241.778 611.356 241.994C610.545 242.21 609.509 241.997 608.259 241.357C606.706 240.564 605.432 239.368 604.433 237.774C603.434 236.18 602.935 234.444 602.935 232.563C602.935 230.574 603.439 229.288 604.442 228.701C605.446 228.114 606.765 228.239 608.401 229.075C609.826 229.805 610.989 230.832 611.883 232.152C612.41 232.934 612.808 233.871 613.074 234.964L610.742 234.339C610.604 233.649 610.316 233.013 609.876 232.43C609.436 231.849 608.909 231.397 608.277 231.077C607.416 230.634 606.715 230.591 606.174 230.951C605.634 231.311 605.363 232.204 605.363 233.627C605.363 235.138 605.629 236.35 606.16 237.26C606.692 238.175 607.384 238.846 608.231 239.282C608.859 239.603 609.4 239.675 609.849 239.5C610.302 239.322 610.623 238.846 610.82 238.072Z" fill="white"/>
<path d="M614.531 240.476L616.826 241.422C616.963 242.279 617.243 243.003 617.664 243.586C618.09 244.171 618.659 244.649 619.373 245.017C620.134 245.406 620.707 245.531 621.091 245.401C621.476 245.268 621.669 244.982 621.669 244.543L621.426 243.698L620.578 242.746C620.299 242.506 619.671 242.01 618.686 241.26C617.426 240.293 616.537 239.444 616.029 238.716C615.314 237.692 614.952 236.708 614.952 235.763C614.952 235.154 615.122 234.67 615.461 234.313C615.8 233.957 616.281 233.802 616.918 233.849C617.55 233.897 618.315 234.15 619.213 234.609C620.679 235.359 621.783 236.252 622.525 237.289C623.263 238.323 623.652 239.4 623.689 240.516L621.334 239.416C621.233 238.753 621.018 238.199 620.684 237.76C620.354 237.322 619.854 236.932 619.19 236.593C618.507 236.242 617.971 236.114 617.582 236.203L617.206 236.751L617.559 237.658C617.857 238.064 618.576 238.7 619.722 239.563C620.871 240.427 621.719 241.149 622.269 241.724C622.819 242.302 623.249 242.927 623.556 243.599C623.868 244.273 624.023 244.987 624.023 245.74C624.023 246.425 623.84 246.971 623.469 247.38C623.093 247.786 622.571 247.962 621.893 247.905C621.21 247.846 620.363 247.559 619.35 247.041C617.875 246.286 616.739 245.356 615.951 244.253C615.158 243.15 614.686 241.891 614.531 240.476Z" fill="white"/>
<path d="M625.412 246.043L627.703 246.986C627.84 247.844 628.12 248.569 628.546 249.153C628.967 249.738 629.535 250.214 630.255 250.58C631.01 250.969 631.583 251.097 631.968 250.967C632.353 250.834 632.545 250.549 632.545 250.109L632.302 249.262L631.455 248.311C631.18 248.073 630.552 247.576 629.567 246.825C628.307 245.857 627.419 245.011 626.905 244.283C626.191 243.258 625.833 242.273 625.833 241.327C625.833 240.72 626.003 240.237 626.337 239.88C626.676 239.523 627.162 239.366 627.794 239.414C628.431 239.461 629.196 239.715 630.094 240.175C631.56 240.923 632.664 241.817 633.402 242.853C634.144 243.889 634.534 244.966 634.57 246.083L632.211 244.982C632.11 244.316 631.895 243.765 631.56 243.326C631.23 242.887 630.731 242.498 630.071 242.159C629.384 241.808 628.848 241.679 628.463 241.767L628.087 242.318L628.436 243.222C628.733 243.631 629.457 244.265 630.603 245.129C631.748 245.994 632.6 246.712 633.15 247.291C633.695 247.868 634.13 248.493 634.437 249.165C634.749 249.838 634.905 250.55 634.905 251.307C634.905 251.99 634.717 252.537 634.346 252.943C633.975 253.352 633.448 253.527 632.77 253.471C632.092 253.413 631.244 253.126 630.227 252.607C628.752 251.852 627.62 250.921 626.828 249.819C626.035 248.717 625.563 247.456 625.412 246.043Z" fill="white"/>
<path d="M705.176 234.804L644.724 203.872C642.089 202.524 639.95 198.905 639.95 195.788V169.707C639.95 166.592 642.089 165.158 644.724 166.508L705.176 197.436C707.81 198.786 709.95 202.403 709.95 205.52V231.603C709.95 234.718 707.81 236.15 705.176 234.804Z" fill="#8F93B1"/>
<path d="M666.82 198.072L669.106 199.983C668.753 201.108 668.176 201.778 667.356 201.994C666.545 202.21 665.509 201.997 664.259 201.357C662.706 200.564 661.432 199.368 660.433 197.774C659.434 196.18 658.935 194.444 658.935 192.563C658.935 190.574 659.439 189.288 660.442 188.701C661.446 188.114 662.765 188.239 664.401 189.075C665.826 189.805 666.989 190.832 667.883 192.152C668.41 192.934 668.808 193.871 669.074 194.964L666.742 194.339C666.604 193.649 666.316 193.013 665.876 192.43C665.436 191.849 664.909 191.397 664.277 191.077C663.416 190.634 662.715 190.591 662.174 190.951C661.634 191.311 661.363 192.204 661.363 193.627C661.363 195.138 661.629 196.35 662.16 197.26C662.692 198.175 663.384 198.846 664.231 199.282C664.859 199.603 665.4 199.675 665.849 199.5C666.302 199.322 666.623 198.846 666.82 198.072Z" fill="white"/>
<path d="M685.35 201V205.068L681.95 203.104V204.859L685.35 206.821V210.925L686.943 211.845V207.741L690.342 209.704V207.949L686.943 205.988V201.92L685.35 201Z" fill="white"/>
<path d="M675.35 196V200.068L671.95 198.104V199.859L675.35 201.821V205.925L676.943 206.845V202.741L680.342 204.704V202.949L676.943 200.988V196.92L675.35 196Z" fill="white"/>
<defs>
<filter id="filter0_d_2_587" x="149.647" y="78.9823" width="324.701" height="408.044" filterUnits="userSpaceOnUse" color-interpolation-filters="sRGB">
<feFlood flood-opacity="0" result="BackgroundImageFix"/>
<feColorMatrix in="SourceAlpha" type="matrix" values="0 0 0 0 0 0 0 0 0 0 0 0 0 0 0 0 0 0 127 0" result="hardAlpha"/>
<feOffset dy="4"/>
<feGaussianBlur stdDeviation="2"/>
<feComposite in2="hardAlpha" operator="out"/>
<feColorMatrix type="matrix" values="0 0 0 0 0 0 0 0 0 0 0 0 0 0 0 0 0 0 0.25 0"/>
<feBlend mode="normal" in2="BackgroundImageFix" result="effect1_dropShadow_2_587"/>
<feBlend mode="normal" in="SourceGraphic" in2="effect1_dropShadow_2_587" result="shape"/>
</filter>
<filter id="filter1_d_2_587" x="394.95" y="243" width="53" height="61" filterUnits="userSpaceOnUse" color-interpolation-filters="sRGB">
<feFlood flood-opacity="0" result="BackgroundImageFix"/>
<feColorMatrix in="SourceAlpha" type="matrix" values="0 0 0 0 0 0 0 0 0 0 0 0 0 0 0 0 0 0 127 0" result="hardAlpha"/>
<feOffset dy="4"/>
<feGaussianBlur stdDeviation="2"/>
<feComposite in2="hardAlpha" operator="out"/>
<feColorMatrix type="matrix" values="0 0 0 0 0 0 0 0 0 0 0 0 0 0 0 0 0 0 0.25 0"/>
<feBlend mode="normal" in2="BackgroundImageFix" result="effect1_dropShadow_2_587"/>
<feBlend mode="normal" in="SourceGraphic" in2="effect1_dropShadow_2_587" result="shape"/>
</filter>
<filter id="filter2_d_2_587" x="27.63" y="367.602" width="175.592" height="133.182" filterUnits="userSpaceOnUse" color-interpolation-filters="sRGB">
<feFlood flood-opacity="0" result="BackgroundImageFix"/>
<feColorMatrix in="SourceAlpha" type="matrix" values="0 0 0 0 0 0 0 0 0 0 0 0 0 0 0 0 0 0 127 0" result="hardAlpha"/>
<feOffset dy="4"/>
<feGaussianBlur stdDeviation="2"/>
<feComposite in2="hardAlpha" operator="out"/>
<feColorMatrix type="matrix" values="0 0 0 0 0 0 0 0 0 0 0 0 0 0 0 0 0 0 0.25 0"/>
<feBlend mode="normal" in2="BackgroundImageFix" result="effect1_dropShadow_2_587"/>
<feBlend mode="normal" in="SourceGraphic" in2="effect1_dropShadow_2_587" result="shape"/>
</filter>
<linearGradient id="paint0_linear_2_587" x1="306.409" y1="239.493" x2="533.008" y2="236.322" gradientUnits="userSpaceOnUse">
<stop stop-color="#82C0FF" stop-opacity="0.81"/>
<stop offset="1" stop-color="#82C0FF"/>
</linearGradient>
<linearGradient id="paint1_linear_2_587" x1="-100080" y1="-91879.2" x2="-159063" y2="-91053.7" gradientUnits="userSpaceOnUse">
<stop stop-color="#82C0FF" stop-opacity="0.81"/>
<stop offset="1" stop-color="#82C0FF"/>
</linearGradient>
<linearGradient id="paint2_linear_2_587" x1="-97814.3" y1="-89692.3" x2="-153123" y2="-88918.2" gradientUnits="userSpaceOnUse">
<stop stop-color="#82C0FF" stop-opacity="0.81"/>
<stop offset="1" stop-color="#82C0FF"/>
</linearGradient>
<linearGradient id="paint3_linear_2_587" x1="377.409" y1="194.493" x2="604.008" y2="191.322" gradientUnits="userSpaceOnUse">
<stop stop-color="#82C0FF"/>
<stop offset="1" stop-color="#82C0FF"/>
</linearGradient>
<linearGradient id="paint4_linear_2_587" x1="-100009" y1="-91924.2" x2="-158992" y2="-91098.7" gradientUnits="userSpaceOnUse">
<stop stop-color="#82C0FF"/>
<stop offset="1" stop-color="#82C0FF"/>
</linearGradient>
<linearGradient id="paint5_linear_2_587" x1="-97743.3" y1="-89737.3" x2="-153052" y2="-88963.2" gradientUnits="userSpaceOnUse">
<stop stop-color="#82C0FF"/>
<stop offset="1" stop-color="#82C0FF"/>
</linearGradient>
<linearGradient id="paint6_linear_2_587" x1="377.409" y1="194.493" x2="604.008" y2="191.322" gradientUnits="userSpaceOnUse">
<stop stop-color="#82C0FF" stop-opacity="0.72"/>
<stop offset="1" stop-color="#82C0FF"/>
</linearGradient>
<linearGradient id="paint7_linear_2_587" x1="-100009" y1="-91924.2" x2="-158992" y2="-91098.7" gradientUnits="userSpaceOnUse">
<stop stop-color="#82C0FF" stop-opacity="0.72"/>
<stop offset="1" stop-color="#82C0FF"/>
</linearGradient>
<linearGradient id="paint8_linear_2_587" x1="-97743.3" y1="-89737.3" x2="-153052" y2="-88963.2" gradientUnits="userSpaceOnUse">
<stop stop-color="#82C0FF" stop-opacity="0.72"/>
<stop offset="1" stop-color="#82C0FF"/>
</linearGradient>
<linearGradient id="paint9_linear_2_587" x1="443.468" y1="162.493" x2="670.068" y2="159.322" gradientUnits="userSpaceOnUse">
<stop stop-color="#82C0FF"/>
<stop offset="1" stop-color="#82C0FF"/>
</linearGradient>
<linearGradient id="paint10_linear_2_587" x1="-99943.3" y1="-91956.2" x2="-158926" y2="-91130.7" gradientUnits="userSpaceOnUse">
<stop stop-color="#82C0FF"/>
<stop offset="0.03125" stop-color="#82C0FF"/>
</linearGradient>
<linearGradient id="paint11_linear_2_587" x1="-97677.2" y1="-89769.3" x2="-152986" y2="-88995.2" gradientUnits="userSpaceOnUse">
<stop stop-color="#82C0FF" stop-opacity="0.57"/>
<stop offset="1" stop-color="#82C0FF" stop-opacity="0.45"/>
</linearGradient>
<linearGradient id="paint12_linear_2_587" x1="443.943" y1="269.223" x2="398.95" y2="269.223" gradientUnits="userSpaceOnUse">
<stop stop-color="#82C0FF"/>
<stop offset="1" stop-color="#82C0FF"/>
</linearGradient>
<linearGradient id="paint13_linear_2_587" x1="19746.7" y1="15855.2" x2="31237.9" y2="15855.2" gradientUnits="userSpaceOnUse">
<stop stop-color="#82C0FF"/>
<stop offset="1" stop-color="#82C0FF"/>
</linearGradient>
<linearGradient id="paint14_linear_2_587" x1="19503.9" y1="15340.3" x2="30389.6" y2="15340.3" gradientUnits="userSpaceOnUse">
<stop stop-color="#82C0FF"/>
<stop offset="1" stop-color="#82C0FF"/>
</linearGradient>
<linearGradient id="paint15_linear_2_587" x1="159.89" y1="492.777" x2="159.99" y2="463.981" gradientUnits="userSpaceOnUse">
<stop stop-color="#FF8488"/>
<stop offset="0.3614" stop-color="#FF8488"/>
<stop offset="0.7616" stop-color="#FF848B"/>
<stop offset="1" stop-color="#FF8488"/>
</linearGradient>
<linearGradient id="paint16_linear_2_587" x1="381.66" y1="295.659" x2="155.039" y2="295.659" gradientUnits="userSpaceOnUse">
<stop stop-color="#82C0FF"/>
<stop offset="1" stop-color="#82C0FF"/>
</linearGradient>
<linearGradient id="paint17_linear_2_587" x1="99469.4" y1="87882.5" x2="158458" y2="87882.5" gradientUnits="userSpaceOnUse">
<stop stop-color="#82C0FF"/>
<stop offset="1" stop-color="#82C0FF"/>
</linearGradient>
<linearGradient id="paint18_linear_2_587" x1="97234.2" y1="85804.7" x2="152548" y2="85804.7" gradientUnits="userSpaceOnUse">
<stop stop-color="#82C0FF"/>
<stop offset="1" stop-color="#82C0FF"/>
</linearGradient>
</defs>
</svg>
