<svg width="402" height="485" viewBox="0 0 402 485" fill="none" xmlns="http://www.w3.org/2000/svg">
<g filter="url(#filter0_d_63_2)">
<path d="M271.515 345.003V300.141C271.515 287.796 262.797 272.651 252.107 266.479L198.146 235.617C208.836 241.789 217.554 256.934 217.554 269.279V314.14C217.554 325.913 209.472 351.43 199.482 346.53L242.18 388.528C273.169 372.429 271.515 357.284 271.515 345.003Z" fill="#7598A0" stroke="black" stroke-width="0.0306" stroke-linecap="round"/>
<path d="M243.961 270.424L190 239.562C200.691 245.734 209.408 260.879 209.408 273.224V318.085C209.408 329.858 206.672 342.393 190 349.711L242.18 379.874C259.488 370.583 263.37 361.293 263.37 348.948V304.086C263.37 291.741 254.652 276.596 243.961 270.424Z" fill="#A9BFC4" stroke="black" stroke-width="0.0306" stroke-linecap="round"/>
<path d="M243.961 270.424L190 239.562C200.691 245.734 209.408 260.879 209.408 273.224V302.495L242.18 379.874C259.488 370.583 263.37 361.293 263.37 348.948V304.086C263.37 291.741 254.652 276.596 243.961 270.424Z" fill="#95B1B5" stroke="black" stroke-width="0.0306" stroke-linecap="round"/>
<path d="M190 230.971V239.626L242.18 269.724V261.134L190 230.971Z" fill="#BADDE0" stroke="black" stroke-width="0.0306"/>
<path d="M190 349.711V358.366L242.18 388.528V379.874L190 349.711Z" fill="#C5D1D6" stroke="black" stroke-width="0.0306"/>
<path d="M80.3599 10.1631V227.281L381.219 401V183.882L80.3599 10.1631Z" fill="#C5D1D6" stroke="black" stroke-width="0.0306"/>
<path d="M381.219 183.882V401L397 391.837V174.719L381.219 183.882Z" fill="#90ABB2" stroke="black" stroke-width="0.0306"/>
<path d="M80.3599 13.9175V216.781L381.219 390.437V187.573L80.3599 13.9175Z" fill="#ACC4CC" stroke="black" stroke-width="0.0306"/>
<path d="M80.3599 10.1631V213.027L381.219 386.746V183.882L80.3599 10.1631Z" fill="#625B70" stroke="black" stroke-width="0.0306"/>
<path d="M381.219 187.637V390.437L397 381.337V178.474L381.219 187.637Z" fill="#7C9CA3" stroke="black" stroke-width="0.0306"/>
<path d="M80.3599 10.1631L381.219 386.746V183.882L80.3599 10.1631Z" fill="#FBFBFF" fill-opacity="0.09" stroke="black" stroke-width="0.0306"/>
<path d="M381.219 183.882V386.746L397 377.583V174.719L381.219 183.882Z" fill="#95B1B5" stroke="black" stroke-width="0.0306"/>
<path d="M96.141 1L80.3599 10.1632L381.155 183.883L397 174.719L96.141 1Z" fill="#C5D1D6" stroke="black" stroke-width="0.0306"/>
<path d="M225.89 303.571L224.235 302.616C224.044 302.489 223.853 302.489 223.726 302.553H223.662L222.835 302.998L223.408 304.016V304.971C223.408 305.48 223.79 306.116 224.235 306.371L225.062 306.88L225.635 307.834L226.462 307.389C226.59 307.325 226.717 307.134 226.717 306.88V304.971C226.653 304.462 226.335 303.825 225.89 303.571Z" fill="#1E8BC3" stroke="black" stroke-width="0.0306" stroke-linecap="round"/>
<path d="M225.062 304.023L223.408 303.068C222.962 302.814 222.581 303.004 222.581 303.513V305.422C222.581 305.932 222.962 306.568 223.408 306.822L225.062 307.777C225.508 308.031 225.889 307.841 225.889 307.331V305.422C225.826 304.913 225.508 304.277 225.062 304.023Z" fill="#242A2D" stroke="black" stroke-width="0.0306" stroke-linecap="round"/>
</g>
<g filter="url(#filter1_d_63_2)">
<path d="M271.515 345.003V300.141C271.515 287.796 262.797 272.651 252.107 266.479L198.146 235.617C208.836 241.789 217.554 256.934 217.554 269.279V314.14C217.554 325.913 209.472 351.43 199.482 346.53L242.18 388.528C273.169 372.429 271.515 357.284 271.515 345.003Z" fill="#7598A0" stroke="black" stroke-width="0.0306" stroke-linecap="round"/>
<path d="M243.961 270.424L190 239.562C200.691 245.734 209.408 260.879 209.408 273.224V318.085C209.408 329.858 206.672 342.393 190 349.711L242.18 379.874C259.488 370.583 263.37 361.293 263.37 348.948V304.086C263.37 291.741 254.652 276.596 243.961 270.424Z" fill="#A9BFC4" stroke="black" stroke-width="0.0306" stroke-linecap="round"/>
<path d="M243.961 270.424L190 239.562C200.691 245.734 209.408 260.879 209.408 273.224V302.495L242.18 379.874C259.488 370.583 263.37 361.293 263.37 348.948V304.086C263.37 291.741 254.652 276.596 243.961 270.424Z" fill="#95B1B5" stroke="black" stroke-width="0.0306" stroke-linecap="round"/>
<path d="M190 230.971V239.626L242.18 269.724V261.134L190 230.971Z" fill="#BADDE0" stroke="black" stroke-width="0.0306"/>
<path d="M190 349.711V358.366L242.18 388.528V379.874L190 349.711Z" fill="#C5D1D6" stroke="black" stroke-width="0.0306"/>
<path d="M80.3599 10.1631V227.281L381.219 401V183.882L80.3599 10.1631Z" fill="#C5D1D6" stroke="black" stroke-width="0.0306"/>
<path d="M381.219 183.882V401L397 391.837V174.719L381.219 183.882Z" fill="#90ABB2" stroke="black" stroke-width="0.0306"/>
<path d="M80.3599 13.9175V216.781L381.219 390.437V187.573L80.3599 13.9175Z" fill="#ACC4CC" stroke="black" stroke-width="0.0306"/>
<path d="M80.3599 10.1631V213.027L381.219 386.746V183.882L80.3599 10.1631Z" fill="#625B70" stroke="black" stroke-width="0.0306"/>
<path d="M381.219 187.637V390.437L397 381.337V178.474L381.219 187.637Z" fill="#7C9CA3" stroke="black" stroke-width="0.0306"/>
<path d="M80.3599 10.1631L381.219 386.746V183.882L80.3599 10.1631Z" fill="#FBFBFF" fill-opacity="0.09" stroke="black" stroke-width="0.0306"/>
<path d="M381.219 183.882V386.746L397 377.583V174.719L381.219 183.882Z" fill="#95B1B5" stroke="black" stroke-width="0.0306"/>
<path d="M96.141 1L80.3599 10.1632L381.155 183.883L397 174.719L96.141 1Z" fill="#C5D1D6" stroke="black" stroke-width="0.0306"/>
<path d="M225.89 303.571L224.235 302.616C224.044 302.489 223.853 302.489 223.726 302.553H223.662L222.835 302.998L223.408 304.016V304.971C223.408 305.48 223.79 306.116 224.235 306.371L225.062 306.88L225.635 307.834L226.462 307.389C226.59 307.325 226.717 307.134 226.717 306.88V304.971C226.653 304.462 226.335 303.825 225.89 303.571Z" fill="#1E8BC3" stroke="black" stroke-width="0.0306" stroke-linecap="round"/>
<path d="M225.062 304.023L223.408 303.068C222.962 302.814 222.581 303.004 222.581 303.513V305.422C222.581 305.932 222.962 306.568 223.408 306.822L225.062 307.777C225.508 308.031 225.889 307.841 225.889 307.331V305.422C225.826 304.913 225.508 304.277 225.062 304.023Z" fill="#242A2D" stroke="black" stroke-width="0.0306" stroke-linecap="round"/>
</g>
<path style="mix-blend-mode:screen" opacity="0.7" d="M370.578 218.431V190.905C370.578 189.952 369.906 188.845 369.078 188.425L326.632 167.279C326.443 167.175 326.224 167.121 326 167.124C326.269 166.956 326.638 166.952 327.043 167.155L369.5 188.314C370.328 188.726 371 189.834 371 190.794V218.311C371 219.004 370.641 219.42 370.131 219.44C370.398 219.266 370.578 218.913 370.578 218.431Z" fill="url(#paint0_linear_63_2)"/>
<g style="mix-blend-mode:screen">
<path style="mix-blend-mode:screen" d="M369.225 219.819L327.574 198.585C326.693 198.136 326 196.978 326 195.948V168.316C326 167.529 326.439 167 327.091 167C327.333 167.005 327.569 167.068 327.775 167.181L369.426 188.415C370.307 188.864 371 190.022 371 191.052V218.684C371 219.471 370.561 220 369.911 220C369.668 219.995 369.432 219.932 369.225 219.819ZM326.404 168.313V195.948C326.404 196.847 327.019 197.891 327.773 198.282L369.426 219.511C369.572 219.592 369.738 219.637 369.909 219.644C370.325 219.644 370.595 219.267 370.595 218.684V191.052C370.595 190.153 369.98 189.109 369.224 188.718L327.574 167.489C327.428 167.408 327.262 167.363 327.091 167.356C326.673 167.356 326.405 167.736 326.405 168.316L326.404 168.313Z" fill="url(#paint1_linear_63_2)"/>
</g>
<path style="mix-blend-mode:screen" opacity="0.7" d="M369.641 219.44C369.522 219.434 369.408 219.401 369.308 219.346L327.23 198.313C326.564 197.98 326 197.031 326 196.24V168.873C326 168.534 326.119 168.192 326.383 168.192C326.501 168.198 326.615 168.231 326.714 168.287L368.792 189.319C369.459 189.652 370.022 190.601 370.022 191.392V218.759C370.022 219.098 369.904 219.44 369.641 219.44Z" fill="url(#paint2_linear_63_2)"/>
<path d="M346.92 189.16C348.16 189.88 349.22 191 350.12 192.54C351.02 194.08 351.46 195.56 351.46 196.98C351.46 198.38 351 199.34 350.1 199.86C349.2 200.4 348.12 200.3 346.88 199.58C345.64 198.86 344.58 197.74 343.7 196.2C342.82 194.66 342.38 193.18 342.38 191.74C342.38 190.32 342.82 189.36 343.72 188.84C344.62 188.34 345.68 188.44 346.92 189.16Z" fill="#FF8488" stroke="#2D2D2D" stroke-opacity="0.03" stroke-width="1.2" stroke-miterlimit="10" stroke-linecap="round" stroke-linejoin="round"/>
<g filter="url(#filter2_d_63_2)">
<path d="M271.515 345.003V300.141C271.515 287.796 262.797 272.651 252.107 266.479L198.146 235.617C208.836 241.789 217.554 256.934 217.554 269.279V314.14C217.554 325.913 209.472 351.43 199.482 346.53L242.18 388.528C273.169 372.429 271.515 357.284 271.515 345.003Z" fill="#7598A0" stroke="black" stroke-width="0.0306" stroke-linecap="round"/>
<path d="M243.961 270.424L190 239.562C200.691 245.734 209.408 260.879 209.408 273.224V318.085C209.408 329.858 206.672 342.393 190 349.711L242.18 379.874C259.488 370.583 263.37 361.293 263.37 348.948V304.086C263.37 291.741 254.652 276.596 243.961 270.424Z" fill="#A9BFC4" stroke="black" stroke-width="0.0306" stroke-linecap="round"/>
<path d="M243.961 270.424L190 239.562C200.691 245.734 209.408 260.879 209.408 273.224V302.495L242.18 379.874C259.488 370.583 263.37 361.293 263.37 348.948V304.086C263.37 291.741 254.652 276.596 243.961 270.424Z" fill="#95B1B5" stroke="black" stroke-width="0.0306" stroke-linecap="round"/>
<path d="M190 230.971V239.626L242.18 269.724V261.134L190 230.971Z" fill="#BADDE0" stroke="black" stroke-width="0.0306"/>
<path d="M190 349.711V358.366L242.18 388.528V379.874L190 349.711Z" fill="#C5D1D6" stroke="black" stroke-width="0.0306"/>
<path d="M80.3599 10.1631V227.281L381.219 401V183.882L80.3599 10.1631Z" fill="#C5D1D6" stroke="black" stroke-width="0.0306"/>
<path d="M381.219 183.882V401L397 391.837V174.719L381.219 183.882Z" fill="#90ABB2" stroke="black" stroke-width="0.0306"/>
<path d="M80.3599 13.9175V216.781L381.219 390.437V187.573L80.3599 13.9175Z" fill="#ACC4CC" stroke="black" stroke-width="0.0306"/>
<path d="M80.3599 10.1631V213.027L381.219 386.746V183.882L80.3599 10.1631Z" fill="#625B70" stroke="black" stroke-width="0.0306"/>
<path d="M381.219 187.637V390.437L397 381.337V178.474L381.219 187.637Z" fill="#7C9CA3" stroke="black" stroke-width="0.0306"/>
<path d="M80.3599 10.1631L381.219 386.746V183.882L80.3599 10.1631Z" fill="#FBFBFF" fill-opacity="0.09" stroke="black" stroke-width="0.0306"/>
<path d="M381.219 183.882V386.746L397 377.583V174.719L381.219 183.882Z" fill="#95B1B5" stroke="black" stroke-width="0.0306"/>
<path d="M96.141 1L80.3599 10.1632L381.155 183.883L397 174.719L96.141 1Z" fill="#C5D1D6" stroke="black" stroke-width="0.0306"/>
<path d="M225.89 303.571L224.235 302.616C224.044 302.489 223.853 302.489 223.726 302.553H223.662L222.835 302.998L223.408 304.016V304.971C223.408 305.48 223.79 306.116 224.235 306.371L225.062 306.88L225.635 307.834L226.462 307.389C226.59 307.325 226.717 307.134 226.717 306.88V304.971C226.653 304.462 226.335 303.825 225.89 303.571Z" fill="#1E8BC3" stroke="black" stroke-width="0.0306" stroke-linecap="round"/>
<path d="M225.062 304.023L223.408 303.068C222.962 302.814 222.581 303.004 222.581 303.513V305.422C222.581 305.932 222.962 306.568 223.408 306.822L225.062 307.777C225.508 308.031 225.889 307.841 225.889 307.331V305.422C225.826 304.913 225.508 304.277 225.062 304.023Z" fill="#242A2D" stroke="black" stroke-width="0.0306" stroke-linecap="round"/>
</g>
<g filter="url(#filter3_d_63_2)">
<path d="M271.515 345.003V300.141C271.515 287.796 262.797 272.651 252.107 266.479L198.146 235.617C208.836 241.789 217.554 256.934 217.554 269.279V314.14C217.554 325.913 209.472 351.43 199.482 346.53L242.18 388.528C273.169 372.429 271.515 357.284 271.515 345.003Z" fill="#7598A0" stroke="black" stroke-width="0.0306" stroke-linecap="round"/>
<path d="M243.961 270.424L190 239.562C200.691 245.734 209.408 260.879 209.408 273.224V318.085C209.408 329.858 206.672 342.393 190 349.711L242.18 379.874C259.488 370.583 263.37 361.293 263.37 348.948V304.086C263.37 291.741 254.652 276.596 243.961 270.424Z" fill="#A9BFC4" stroke="black" stroke-width="0.0306" stroke-linecap="round"/>
<path d="M243.961 270.424L190 239.562C200.691 245.734 209.408 260.879 209.408 273.224V302.495L242.18 379.874C259.488 370.583 263.37 361.293 263.37 348.948V304.086C263.37 291.741 254.652 276.596 243.961 270.424Z" fill="#95B1B5" stroke="black" stroke-width="0.0306" stroke-linecap="round"/>
<path d="M190 230.971V239.626L242.18 269.724V261.134L190 230.971Z" fill="#BADDE0" stroke="black" stroke-width="0.0306"/>
<path d="M190 349.711V358.366L242.18 388.528V379.874L190 349.711Z" fill="#C5D1D6" stroke="black" stroke-width="0.0306"/>
<path d="M80.3599 10.1631V227.281L381.219 401V183.882L80.3599 10.1631Z" fill="#C5D1D6" stroke="black" stroke-width="0.0306"/>
<path d="M381.219 183.882V401L397 391.837V174.719L381.219 183.882Z" fill="#90ABB2" stroke="black" stroke-width="0.0306"/>
<path d="M80.3599 13.9175V216.781L381.219 390.437V187.573L80.3599 13.9175Z" fill="#ACC4CC" stroke="black" stroke-width="0.0306"/>
<path d="M80.3599 10.1631V213.027L381.219 386.746V183.882L80.3599 10.1631Z" fill="#625B70" stroke="black" stroke-width="0.0306"/>
<path d="M381.219 187.637V390.437L397 381.337V178.474L381.219 187.637Z" fill="#7C9CA3" stroke="black" stroke-width="0.0306"/>
<path d="M80.3599 10.1631L381.219 386.746V183.882L80.3599 10.1631Z" fill="#FBFBFF" fill-opacity="0.09" stroke="black" stroke-width="0.0306"/>
<path d="M381.219 183.882V386.746L397 377.583V174.719L381.219 183.882Z" fill="#95B1B5" stroke="black" stroke-width="0.0306"/>
<path d="M96.141 1L80.3599 10.1632L381.155 183.883L397 174.719L96.141 1Z" fill="#C5D1D6" stroke="black" stroke-width="0.0306"/>
<path d="M225.89 303.571L224.235 302.616C224.044 302.489 223.853 302.489 223.726 302.553H223.662L222.835 302.998L223.408 304.016V304.971C223.408 305.48 223.79 306.116 224.235 306.371L225.062 306.88L225.635 307.834L226.462 307.389C226.59 307.325 226.717 307.134 226.717 306.88V304.971C226.653 304.462 226.335 303.825 225.89 303.571Z" fill="#1E8BC3" stroke="black" stroke-width="0.0306" stroke-linecap="round"/>
<path d="M225.062 304.023L223.408 303.068C222.962 302.814 222.581 303.004 222.581 303.513V305.422C222.581 305.932 222.962 306.568 223.408 306.822L225.062 307.777C225.508 308.031 225.889 307.841 225.889 307.331V305.422C225.826 304.913 225.508 304.277 225.062 304.023Z" fill="#242A2D" stroke="black" stroke-width="0.0306" stroke-linecap="round"/>
</g>
<path style="mix-blend-mode:screen" opacity="0.7" d="M370.578 218.431V190.905C370.578 189.952 369.906 188.845 369.078 188.425L326.632 167.279C326.443 167.175 326.224 167.121 326 167.124C326.269 166.956 326.638 166.952 327.043 167.155L369.5 188.314C370.328 188.726 371 189.834 371 190.794V218.311C371 219.004 370.641 219.42 370.131 219.44C370.398 219.266 370.578 218.913 370.578 218.431Z" fill="url(#paint3_linear_63_2)"/>
<g style="mix-blend-mode:screen">
<path style="mix-blend-mode:screen" d="M369.225 219.819L327.574 198.585C326.693 198.136 326 196.978 326 195.948V168.316C326 167.529 326.439 167 327.091 167C327.333 167.005 327.569 167.068 327.775 167.181L369.426 188.415C370.307 188.864 371 190.022 371 191.052V218.684C371 219.471 370.561 220 369.911 220C369.668 219.995 369.432 219.932 369.225 219.819ZM326.404 168.313V195.948C326.404 196.847 327.019 197.891 327.773 198.282L369.426 219.511C369.572 219.592 369.738 219.637 369.909 219.644C370.325 219.644 370.595 219.267 370.595 218.684V191.052C370.595 190.153 369.98 189.109 369.224 188.718L327.574 167.489C327.428 167.408 327.262 167.363 327.091 167.356C326.673 167.356 326.405 167.736 326.405 168.316L326.404 168.313Z" fill="url(#paint4_linear_63_2)"/>
</g>
<path style="mix-blend-mode:screen" opacity="0.7" d="M369.641 219.44C369.522 219.434 369.408 219.401 369.308 219.346L327.23 198.313C326.564 197.98 326 197.031 326 196.24V168.873C326 168.534 326.119 168.192 326.383 168.192C326.501 168.198 326.615 168.231 326.714 168.287L368.792 189.319C369.459 189.652 370.022 190.601 370.022 191.392V218.759C370.022 219.098 369.904 219.44 369.641 219.44Z" fill="url(#paint5_linear_63_2)"/>
<path d="M346.92 189.16C348.16 189.88 349.22 191 350.12 192.54C351.02 194.08 351.46 195.56 351.46 196.98C351.46 198.38 351 199.34 350.1 199.86C349.2 200.4 348.12 200.3 346.88 199.58C345.64 198.86 344.58 197.74 343.7 196.2C342.82 194.66 342.38 193.18 342.38 191.74C342.38 190.32 342.82 189.36 343.72 188.84C344.62 188.34 345.68 188.44 346.92 189.16Z" fill="#FF8488" stroke="#2D2D2D" stroke-opacity="0.03" stroke-width="1.2" stroke-miterlimit="10" stroke-linecap="round" stroke-linejoin="round"/>
<path style="mix-blend-mode:screen" opacity="0.7" d="M316.58 326.901V168.934C316.58 163.462 313.138 157.111 308.896 154.7L91.399 33.3397C90.4316 32.7452 89.3059 32.4361 88.1597 32.4501C89.5401 31.4893 91.4266 31.4626 93.5064 32.628L311.058 154.059C315.301 156.426 318.742 162.786 318.742 168.293V326.216C318.742 330.193 316.902 332.577 314.288 332.692C315.66 331.696 316.58 329.668 316.58 326.901Z" fill="url(#paint6_linear_63_2)"/>
<g style="mix-blend-mode:screen">
<path style="mix-blend-mode:screen" d="M309.733 332.968L92.218 211.572C87.6167 209.001 84 202.383 84 196.493V38.5261C84 34.0247 86.2915 31 89.6965 31C90.9604 31.0311 92.1929 31.3873 93.2671 32.0319L310.782 153.428C315.383 155.999 319 162.617 319 168.506V326.474C319 330.975 316.709 334 313.313 334C312.046 333.969 310.81 333.613 309.733 332.968ZM86.1074 38.5083V196.493C86.1074 201.635 89.3192 207.605 93.2579 209.838L310.782 331.207C311.541 331.665 312.41 331.926 313.304 331.963C315.475 331.963 316.883 329.81 316.883 326.474V168.506C316.883 163.365 313.672 157.395 309.724 155.162L92.218 33.7934C91.4593 33.3347 90.5905 33.0741 89.6965 33.0372C87.5154 33.0372 86.1166 35.2078 86.1166 38.5261L86.1074 38.5083Z" fill="url(#paint7_linear_63_2)"/>
</g>
<path style="mix-blend-mode:screen" opacity="0.7" d="M313.313 330.406C312.701 330.369 312.108 330.183 311.592 329.863L94.0768 208.459C90.635 206.537 87.7178 201.057 87.7178 196.493V38.5261C87.7178 36.5689 88.3344 34.594 89.6964 34.594C90.3067 34.6316 90.8965 34.8216 91.4081 35.1455L308.923 156.541C312.374 158.463 315.282 163.943 315.282 168.506V326.474C315.282 328.431 314.675 330.406 313.313 330.406Z" fill="url(#paint8_linear_63_2)"/>
<path d="M92.3653 52.6797L89.3284 50.9806V47.52L92.3653 49.2192V52.6797Z" fill="#2191F2"/>
<path d="M107.458 60.179L93.5432 52.4217V50.6514L107.458 58.4176V60.179Z" fill="#E6E7E8"/>
<path d="M92.3653 72.0999L89.3284 70.4008V66.9402L92.3653 68.6393V72.0999Z" fill="#2191F2"/>
<path d="M107.458 79.5992L93.5432 71.8419V70.0715L107.458 77.8378V79.5992Z" fill="#E6E7E8"/>
<path d="M92.3653 97.3735L89.3284 95.6743V92.2227L92.3653 93.9129V97.3735Z" fill="#2191F2"/>
<path d="M107.458 104.882L93.5432 97.1157V95.3542L107.458 103.112V104.882Z" fill="#E6E7E8"/>
<path d="M92.3653 103.903L89.3284 102.213V98.7524L92.3653 100.452V103.903Z" fill="#2191F2"/>
<path d="M107.458 111.411L93.5432 103.645V101.884L107.458 109.641V111.411Z" fill="#E6E7E8"/>
<path d="M96.5893 60.1169L93.5432 58.4177V54.9661L96.5893 56.6563V60.1169Z" fill="#2191F2"/>
<path d="M111.672 67.6251L97.7671 59.8588V58.0974L111.672 65.8548V67.6251Z" fill="#E6E7E8"/>
<path d="M96.5893 65.2054L93.5432 63.5062V60.0457L96.5893 61.7448V65.2054Z" fill="#2191F2"/>
<path d="M116.955 75.6493L97.7671 64.9473V63.177L116.955 73.8879V75.6493Z" fill="#E6E7E8"/>
<path d="M96.5893 79.3234L93.5432 77.6243V74.1726L96.5893 75.8629V79.3234Z" fill="#2191F2"/>
<path d="M121.114 92.0981L97.7671 79.0654V77.304L121.114 90.3278V92.0981Z" fill="#E6E7E8"/>
<path d="M96.5893 84.4119L93.5432 82.7128V79.2522L96.5893 80.9513V84.4119Z" fill="#2191F2"/>
<path d="M113.54 92.9523L97.7671 84.1541V82.3838L113.54 91.1909V92.9523Z" fill="#E6E7E8"/>
<path d="M100.169 91.0485L97.7671 89.7052V86.9741L100.169 88.3174V91.0485Z" fill="#2191F2"/>
<path d="M127.078 105.336L101.099 90.8439V89.4473L127.078 103.948V105.336Z" fill="#E6E7E8"/>
<path d="M100.169 95.0605L97.7671 93.7172V90.9861L100.169 92.3294V95.0605Z" fill="#2191F2"/>
<path d="M116.955 103.699L101.099 94.8559V93.4592L116.955 102.311V103.699Z" fill="#E6E7E8"/>
<path d="M92.3653 111.216L89.3284 109.517V106.056L92.3653 107.755V111.216Z" fill="#2191F2"/>
<path d="M107.458 118.715L93.5432 110.958V109.188L107.458 116.954V118.715Z" fill="#E6E7E8"/>
<path d="M92.3653 130.636L89.3284 128.937V125.476L92.3653 127.175V130.636Z" fill="#2191F2"/>
<path d="M107.458 138.135L93.5432 130.378V128.608L107.458 136.374V138.135Z" fill="#E6E7E8"/>
<path d="M92.3653 155.91L89.3284 154.219V150.759L92.3653 152.449V155.91Z" fill="#2191F2"/>
<path d="M107.458 163.418L93.5432 155.652V153.89L107.458 161.648V163.418Z" fill="#E6E7E8"/>
<path d="M92.3653 162.448L89.3284 160.749V157.289L92.3653 158.988V162.448Z" fill="#2191F2"/>
<path d="M107.458 169.948L93.5432 162.181V160.42L107.458 168.177V169.948Z" fill="#E6E7E8"/>
<path d="M96.5893 118.653L93.5432 116.963V113.502L96.5893 115.192V118.653Z" fill="#2191F2"/>
<path d="M111.672 126.161L97.7671 118.395V116.634L111.672 124.391V126.161Z" fill="#E6E7E8"/>
<path d="M96.5893 123.741L93.5432 122.042V118.582L96.5893 120.281V123.741Z" fill="#2191F2"/>
<path d="M116.955 134.185L97.7671 123.483V121.713L116.955 132.424V134.185Z" fill="#E6E7E8"/>
<path d="M96.5893 137.859L93.5432 136.16V132.7L96.5893 134.399V137.859Z" fill="#2191F2"/>
<path d="M121.114 150.634L97.7671 137.602V135.84L121.114 148.864V150.634Z" fill="#E6E7E8"/>
<path d="M96.5893 142.948L93.5432 141.249V137.788L96.5893 139.487V142.948Z" fill="#2191F2"/>
<path d="M113.54 151.488L97.7671 142.69V140.92L113.54 149.727V151.488Z" fill="#E6E7E8"/>
<path d="M100.169 149.585L97.7671 148.241V145.51L100.169 146.854V149.585Z" fill="#2191F2"/>
<path d="M127.078 163.872L101.099 149.38V147.983L127.078 162.484V163.872Z" fill="#E6E7E8"/>
<path d="M100.169 153.597L97.7671 152.253V149.522L100.169 150.866V153.597Z" fill="#2191F2"/>
<path d="M116.955 162.235L101.099 153.392V151.995L116.955 160.847V162.235Z" fill="#E6E7E8"/>
<path d="M140.302 77.6244C139.939 77.3937 139.637 77.0834 139.421 76.7185C139.205 76.3537 139.081 75.9447 139.06 75.5249C139.06 74.751 139.612 74.4218 140.302 74.8044C140.665 75.0369 140.966 75.3491 141.18 75.7155C141.395 76.082 141.516 76.4922 141.535 76.9127C141.535 77.6867 140.983 78.0069 140.302 77.6244Z" fill="#4F5569"/>
<path d="M160.125 88.691L145.226 80.3821V77.562L160.125 85.8798V88.691Z" fill="#F5AB35"/>
<path d="M190.972 105.914L163.806 90.746V87.9348L190.972 103.094V105.914Z" fill="#E4464A"/>
<path d="M140.302 85.9154C139.939 85.6847 139.637 85.3743 139.421 85.0095C139.205 84.6447 139.081 84.2357 139.06 83.8159C139.06 83.0419 139.612 82.7217 140.302 83.1042C140.664 83.3359 140.964 83.6467 141.178 84.0114C141.393 84.3762 141.515 84.7847 141.535 85.2037C141.535 85.9776 140.983 86.2979 140.302 85.9154Z" fill="#4F5569"/>
<path d="M182.349 109.392L145.226 88.6733V85.8533L182.349 106.581V109.392Z" fill="#E4464A"/>
<path d="M251.535 148.01L186.03 111.447V108.627L251.535 145.19V148.01Z" fill="#92C967"/>
<path d="M140.302 94.2155C139.942 93.9875 139.643 93.6813 139.427 93.3214C139.211 92.9615 139.085 92.5579 139.06 92.1427C139.06 91.3598 139.612 91.0396 140.302 91.4221C140.664 91.6538 140.964 91.9646 141.178 92.3293C141.393 92.6941 141.515 93.1026 141.535 93.5216C141.535 94.2778 140.983 94.598 140.302 94.2155Z" fill="#4F5569"/>
<path d="M160.125 105.282L145.226 96.9731V94.1531L160.125 102.462V105.282Z" fill="#E4464A"/>
<path d="M140.302 102.507C139.939 102.276 139.637 101.966 139.421 101.601C139.205 101.236 139.081 100.827 139.06 100.407C139.06 99.6242 139.612 99.304 140.302 99.6865C140.664 99.9182 140.964 100.229 141.178 100.594C141.393 100.959 141.515 101.367 141.535 101.786C141.535 102.569 140.983 102.889 140.302 102.507Z" fill="#4F5569"/>
<path d="M153.849 110.077L145.226 105.264V102.444L153.849 107.257V110.077Z" fill="#E4464A"/>
<path d="M182.349 125.983L157.53 112.123V109.312L182.349 123.163V125.983Z" fill="white"/>
<path d="M140.302 110.824C139.939 110.594 139.637 110.283 139.421 109.918C139.205 109.554 139.081 109.145 139.06 108.725C139.06 107.951 139.612 107.631 140.302 108.013C140.664 108.245 140.964 108.556 141.178 108.92C141.393 109.285 141.515 109.694 141.535 110.113C141.535 110.824 140.983 111.18 140.302 110.824Z" fill="#4F5569"/>
<path d="M167.57 126.028L152.68 117.71V114.899L167.57 123.208V126.028Z" fill="white"/>
<path d="M204.04 146.373L171.251 128.083V125.263L204.04 143.562V146.373Z" fill="#2191F2"/>
<path d="M140.302 119.098C139.938 118.866 139.635 118.555 139.419 118.188C139.203 117.822 139.08 117.411 139.06 116.989C139.06 116.216 139.612 115.895 140.302 116.278C140.664 116.509 140.964 116.82 141.178 117.185C141.393 117.55 141.515 117.958 141.535 118.377C141.535 119.151 140.983 119.471 140.302 119.098Z" fill="#4F5569"/>
<path d="M264.336 188.327L152.68 126.01V123.19L264.336 185.507V188.327Z" fill="#92C967"/>
<path d="M283.929 199.26L268.854 190.844V188.024L283.929 196.44V199.26Z" fill="#F5AB35"/>
<path d="M283.929 199.029L268.854 190.613V187.793L283.929 196.209V199.029Z" fill="#F5AB35"/>
<path d="M140.302 127.389C139.939 127.158 139.637 126.848 139.421 126.483C139.205 126.118 139.081 125.709 139.06 125.289C139.06 124.507 139.612 124.186 140.302 124.569C140.664 124.8 140.964 125.111 141.178 125.476C141.393 125.841 141.515 126.249 141.535 126.668C141.535 127.451 140.983 127.771 140.302 127.389Z" fill="#4F5569"/>
<path d="M315.107 224.961L161.229 139.078V136.258L315.107 222.141V224.961Z" fill="#2191F2"/>
<path d="M140.302 135.68C139.939 135.449 139.637 135.139 139.421 134.774C139.205 134.409 139.081 134 139.06 133.581C139.06 132.807 139.612 132.477 140.302 132.86C140.664 133.092 140.964 133.402 141.178 133.767C141.393 134.132 141.515 134.54 141.535 134.959C141.535 135.733 140.983 136.063 140.302 135.68Z" fill="#4F5569"/>
<path d="M254.13 199.216L161.229 147.369V144.549L254.13 196.396V199.216Z" fill="#2191F2"/>
<path d="M283.928 215.851L258.096 201.431V198.611L283.928 213.031V215.851Z" fill="#92C967"/>
<path d="M140.302 143.971C139.939 143.741 139.637 143.43 139.421 143.065C139.205 142.701 139.081 142.292 139.06 141.872C139.06 141.098 139.612 140.778 140.302 141.16C140.664 141.392 140.964 141.703 141.178 142.067C141.393 142.432 141.515 142.841 141.535 143.26C141.535 144.034 140.983 144.354 140.302 143.971Z" fill="#4F5569"/>
<path d="M161.229 155.661L152.68 150.883V148.072L161.229 152.841V155.661Z" fill="#E4464A"/>
<path d="M140.302 152.156C139.939 151.925 139.637 151.615 139.421 151.25C139.205 150.885 139.081 150.476 139.06 150.056C139.06 149.282 139.612 148.962 140.302 149.344C140.664 149.576 140.964 149.887 141.178 150.252C141.393 150.616 141.515 151.025 141.535 151.444C141.535 152.218 140.983 152.538 140.302 152.156Z" fill="#4F5569"/>
<path d="M167.57 167.386L152.68 159.068V156.257L167.57 164.566V167.386Z" fill="white"/>
<path d="M204.04 187.74L171.251 169.441V166.621L204.04 184.92V187.74Z" fill="#2191F2"/>
<path d="M140.302 160.456C139.939 160.225 139.637 159.914 139.421 159.55C139.205 159.185 139.081 158.776 139.06 158.356C139.06 157.573 139.612 157.253 140.302 157.635C140.664 157.867 140.964 158.178 141.178 158.543C141.393 158.907 141.515 159.316 141.535 159.735C141.535 160.509 140.983 160.838 140.302 160.456Z" fill="#4F5569"/>
<path d="M264.336 229.685L152.68 167.368V164.548L264.336 226.865V229.685Z" fill="#92C967"/>
<path d="M283.929 240.618L268.854 232.202V229.391L283.929 237.798V240.618Z" fill="#F5AB35"/>
<path d="M283.929 240.387L268.854 231.971V229.151L283.929 237.567V240.387Z" fill="#F5AB35"/>
<path d="M140.302 168.747C139.939 168.516 139.637 168.206 139.421 167.841C139.205 167.476 139.081 167.067 139.06 166.647C139.06 165.864 139.612 165.544 140.302 165.927C140.664 166.158 140.964 166.469 141.178 166.834C141.393 167.199 141.515 167.607 141.535 168.026C141.535 168.809 140.983 169.129 140.302 168.747Z" fill="#4F5569"/>
<path d="M315.107 266.319L161.229 180.436V177.616L315.107 263.499V266.319Z" fill="#E4464A"/>
<path d="M140.302 177.038C139.939 176.807 139.637 176.497 139.421 176.132C139.205 175.767 139.081 175.358 139.06 174.938C139.06 174.164 139.612 173.835 140.302 174.218C140.665 174.45 140.966 174.762 141.18 175.129C141.395 175.495 141.516 175.906 141.535 176.326C141.535 177.1 140.983 177.42 140.302 177.038Z" fill="#4F5569"/>
<path d="M188.957 204.198L161.229 188.727V185.907L188.957 201.377V204.198Z" fill="#2191F2"/>
<path d="M254.13 240.574L193.816 206.911V204.091L254.13 237.754V240.574Z" fill="white"/>
<path d="M283.928 257.209L258.096 242.789V239.969L283.928 254.389V257.209Z" fill="#92C967"/>
<path d="M140.302 185.329C139.939 185.098 139.637 184.788 139.421 184.423C139.205 184.058 139.081 183.649 139.06 183.229C139.06 182.456 139.612 182.135 140.302 182.518C140.664 182.749 140.964 183.06 141.178 183.425C141.393 183.79 141.515 184.198 141.535 184.617C141.535 185.391 140.983 185.711 140.302 185.329Z" fill="#4F5569"/>
<path d="M161.229 197.018L152.68 192.25V189.43L161.229 194.198V197.018Z" fill="#F5AB35"/>
<path d="M140.302 193.558C139.939 193.327 139.637 193.017 139.421 192.652C139.205 192.287 139.081 191.878 139.06 191.458C139.06 190.684 139.612 190.364 140.302 190.747C140.664 190.978 140.964 191.289 141.178 191.654C141.393 192.019 141.515 192.427 141.535 192.846C141.535 193.558 140.983 193.896 140.302 193.558Z" fill="#4F5569"/>
<path d="M167.57 208.743L152.68 200.426V197.615L167.57 205.923V208.743Z" fill="white"/>
<path d="M204.04 229.098L171.251 210.798V207.978L204.04 226.277V229.098Z" fill="#2191F2"/>
<path d="M140.302 201.813C139.939 201.583 139.637 201.272 139.421 200.908C139.205 200.543 139.081 200.134 139.06 199.714C139.06 198.931 139.612 198.611 140.302 198.993C140.664 199.225 140.964 199.536 141.178 199.901C141.393 200.265 141.515 200.674 141.535 201.093C141.535 201.876 140.983 202.196 140.302 201.813Z" fill="#4F5569"/>
<path d="M264.336 271.043L152.68 208.726V205.906L264.336 268.222V271.043Z" fill="#92C967"/>
<path d="M283.929 281.976L268.854 273.56V270.749L283.929 279.156V281.976Z" fill="#F5AB35"/>
<path d="M283.929 281.745L268.854 273.329V270.509L283.929 278.924V281.745Z" fill="#92C967"/>
<path d="M140.302 210.104C139.939 209.874 139.637 209.563 139.421 209.199C139.205 208.834 139.081 208.425 139.06 208.005C139.06 207.222 139.612 206.902 140.302 207.284C140.664 207.516 140.964 207.827 141.178 208.192C141.393 208.556 141.515 208.965 141.535 209.384C141.535 210.167 140.983 210.46 140.302 210.104Z" fill="#4F5569"/>
<path d="M315.107 307.677L161.229 221.794V218.974L315.107 304.856V307.677Z" fill="#2191F2"/>
<path d="M140.302 218.396C139.939 218.165 139.637 217.855 139.421 217.49C139.205 217.125 139.081 216.716 139.06 216.296C139.06 215.522 139.612 215.202 140.302 215.584C140.664 215.816 140.964 216.127 141.178 216.492C141.393 216.856 141.515 217.265 141.535 217.684C141.535 218.467 140.983 218.778 140.302 218.396Z" fill="#4F5569"/>
<path d="M254.13 281.931L161.229 230.085V227.265L254.13 279.111V281.931Z" fill="white"/>
<path d="M283.928 298.567L258.096 284.146V281.326L283.928 295.747V298.567Z" fill="#E4464A"/>
<path d="M315.107 315.968L289.275 301.547V298.727L315.107 313.148V315.968Z" fill="white"/>
<path d="M161.229 238.376L152.68 233.608V230.788L161.229 235.556V238.376Z" fill="#F5AB35"/>
<path d="M140.302 238.26C139.938 238.029 139.635 237.717 139.419 237.351C139.203 236.984 139.08 236.573 139.06 236.152C139.06 235.378 139.612 235.058 140.302 235.44C140.664 235.672 140.964 235.983 141.178 236.348C141.393 236.712 141.515 237.121 141.535 237.54C141.535 238.314 140.983 238.634 140.302 238.26Z" fill="#4F5569"/>
<path d="M224.455 350.355C157.049 298.804 132.278 238.893 132.278 238.893L132.243 238.928C131.915 239.158 129.914 240.511 126.191 242.219L126.129 242.254C113.293 248.013 80.3365 257.383 27.1401 236L0.653442 250.376L26.8403 272.519C29.1131 321.533 42.7016 409.108 106.551 466.906C118.836 470.294 129.873 471.061 139.801 469.827L140.61 474.708L161.609 463.259V463.246C213.369 437.428 224.455 350.355 224.455 350.355Z" fill="#EDEDED"/>
<path d="M224.455 350.355L198.003 364.759L130.305 369.04L105.826 331.767V253.304L126.129 242.254L126.191 242.219L132.243 238.928L132.278 238.893C132.278 238.893 157.05 298.804 224.455 350.355Z" fill="white"/>
<path d="M105.826 253.298C105.826 253.298 70.8895 278.606 0.667468 250.39C0.667468 250.39 -12.6909 397.297 80.1135 481.31C179.681 508.773 198.017 364.752 198.017 364.752C130.584 313.201 105.826 253.298 105.826 253.298Z" fill="url(#paint9_linear_63_2)"/>
<path d="M103.867 270.183C103.867 270.183 74.0756 291.769 14.207 267.708C14.207 267.708 2.81477 392.961 81.9401 464.584C166.824 488.003 182.463 365.212 182.463 365.212C124.971 321.26 103.867 270.183 103.867 270.183Z" fill="url(#paint10_linear_63_2)"/>
<defs>
<filter id="filter0_d_63_2" x="76.3293" y="0.982422" width="324.701" height="408.044" filterUnits="userSpaceOnUse" color-interpolation-filters="sRGB">
<feFlood flood-opacity="0" result="BackgroundImageFix"/>
<feColorMatrix in="SourceAlpha" type="matrix" values="0 0 0 0 0 0 0 0 0 0 0 0 0 0 0 0 0 0 127 0" result="hardAlpha"/>
<feOffset dy="4"/>
<feGaussianBlur stdDeviation="2"/>
<feComposite in2="hardAlpha" operator="out"/>
<feColorMatrix type="matrix" values="0 0 0 0 0 0 0 0 0 0 0 0 0 0 0 0 0 0 0.25 0"/>
<feBlend mode="normal" in2="BackgroundImageFix" result="effect1_dropShadow_63_2"/>
<feBlend mode="normal" in="SourceGraphic" in2="effect1_dropShadow_63_2" result="shape"/>
</filter>
<filter id="filter1_d_63_2" x="76.3293" y="0.982422" width="324.701" height="408.044" filterUnits="userSpaceOnUse" color-interpolation-filters="sRGB">
<feFlood flood-opacity="0" result="BackgroundImageFix"/>
<feColorMatrix in="SourceAlpha" type="matrix" values="0 0 0 0 0 0 0 0 0 0 0 0 0 0 0 0 0 0 127 0" result="hardAlpha"/>
<feOffset dy="4"/>
<feGaussianBlur stdDeviation="2"/>
<feComposite in2="hardAlpha" operator="out"/>
<feColorMatrix type="matrix" values="0 0 0 0 0 0 0 0 0 0 0 0 0 0 0 0 0 0 0.25 0"/>
<feBlend mode="normal" in2="BackgroundImageFix" result="effect1_dropShadow_63_2"/>
<feBlend mode="normal" in="SourceGraphic" in2="effect1_dropShadow_63_2" result="shape"/>
</filter>
<filter id="filter2_d_63_2" x="76.3293" y="0.982422" width="324.701" height="408.044" filterUnits="userSpaceOnUse" color-interpolation-filters="sRGB">
<feFlood flood-opacity="0" result="BackgroundImageFix"/>
<feColorMatrix in="SourceAlpha" type="matrix" values="0 0 0 0 0 0 0 0 0 0 0 0 0 0 0 0 0 0 127 0" result="hardAlpha"/>
<feOffset dy="4"/>
<feGaussianBlur stdDeviation="2"/>
<feComposite in2="hardAlpha" operator="out"/>
<feColorMatrix type="matrix" values="0 0 0 0 0 0 0 0 0 0 0 0 0 0 0 0 0 0 0.25 0"/>
<feBlend mode="normal" in2="BackgroundImageFix" result="effect1_dropShadow_63_2"/>
<feBlend mode="normal" in="SourceGraphic" in2="effect1_dropShadow_63_2" result="shape"/>
</filter>
<filter id="filter3_d_63_2" x="76.3293" y="0.982422" width="324.701" height="408.044" filterUnits="userSpaceOnUse" color-interpolation-filters="sRGB">
<feFlood flood-opacity="0" result="BackgroundImageFix"/>
<feColorMatrix in="SourceAlpha" type="matrix" values="0 0 0 0 0 0 0 0 0 0 0 0 0 0 0 0 0 0 127 0" result="hardAlpha"/>
<feOffset dy="4"/>
<feGaussianBlur stdDeviation="2"/>
<feComposite in2="hardAlpha" operator="out"/>
<feColorMatrix type="matrix" values="0 0 0 0 0 0 0 0 0 0 0 0 0 0 0 0 0 0 0.25 0"/>
<feBlend mode="normal" in2="BackgroundImageFix" result="effect1_dropShadow_63_2"/>
<feBlend mode="normal" in="SourceGraphic" in2="effect1_dropShadow_63_2" result="shape"/>
</filter>
<linearGradient id="paint0_linear_63_2" x1="370.993" y1="193.223" x2="326" y2="193.223" gradientUnits="userSpaceOnUse">
<stop stop-color="#82C0FF"/>
<stop offset="1" stop-color="#82C0FF"/>
</linearGradient>
<linearGradient id="paint1_linear_63_2" x1="19673.7" y1="15779.2" x2="31164.9" y2="15779.2" gradientUnits="userSpaceOnUse">
<stop stop-color="#82C0FF"/>
<stop offset="1" stop-color="#82C0FF"/>
</linearGradient>
<linearGradient id="paint2_linear_63_2" x1="19431" y1="15264.3" x2="30316.7" y2="15264.3" gradientUnits="userSpaceOnUse">
<stop stop-color="#82C0FF"/>
<stop offset="1" stop-color="#82C0FF"/>
</linearGradient>
<linearGradient id="paint3_linear_63_2" x1="370.993" y1="193.223" x2="326" y2="193.223" gradientUnits="userSpaceOnUse">
<stop stop-color="#82C0FF"/>
<stop offset="1" stop-color="#82C0FF"/>
</linearGradient>
<linearGradient id="paint4_linear_63_2" x1="19673.7" y1="15779.2" x2="31164.9" y2="15779.2" gradientUnits="userSpaceOnUse">
<stop stop-color="#82C0FF"/>
<stop offset="1" stop-color="#82C0FF"/>
</linearGradient>
<linearGradient id="paint5_linear_63_2" x1="19431" y1="15264.3" x2="30316.7" y2="15264.3" gradientUnits="userSpaceOnUse">
<stop stop-color="#82C0FF"/>
<stop offset="1" stop-color="#82C0FF"/>
</linearGradient>
<linearGradient id="paint6_linear_63_2" x1="318.706" y1="182.233" x2="88.1597" y2="182.233" gradientUnits="userSpaceOnUse">
<stop stop-color="#82C0FF"/>
<stop offset="1" stop-color="#82C0FF"/>
</linearGradient>
<linearGradient id="paint7_linear_63_2" x1="101122" y1="89285.7" x2="161132" y2="89285.7" gradientUnits="userSpaceOnUse">
<stop stop-color="#82C0FF"/>
<stop offset="1" stop-color="#82C0FF"/>
</linearGradient>
<linearGradient id="paint8_linear_63_2" x1="98848.3" y1="87171.9" x2="155120" y2="87171.9" gradientUnits="userSpaceOnUse">
<stop stop-color="#82C0FF"/>
<stop offset="1" stop-color="#82C0FF"/>
</linearGradient>
<linearGradient id="paint9_linear_63_2" x1="-0.00184433" y1="367.59" x2="198.015" y2="367.59" gradientUnits="userSpaceOnUse">
<stop stop-color="white"/>
<stop offset="1" stop-color="#E2E2E2"/>
</linearGradient>
<linearGradient id="paint10_linear_63_2" x1="13.6423" y1="367.631" x2="182.465" y2="367.631" gradientUnits="userSpaceOnUse">
<stop stop-color="#A46DFF"/>
<stop offset="1" stop-color="#4B08BA"/>
</linearGradient>
</defs>
</svg>
