<svg width="2989" height="1040" viewBox="0 0 2989 1040" fill="none" xmlns="http://www.w3.org/2000/svg">
<path d="M1163.9 535.802L1120.96 558.283C1114.19 544.658 1105.8 537.846 1095.8 537.846C1091.02 537.846 1086.95 539.435 1083.56 542.615C1080.17 545.642 1078.48 549.578 1078.48 554.423C1078.48 562.9 1088.48 571.302 1108.49 579.629C1136.04 591.285 1154.59 602.034 1164.13 611.874C1173.68 621.714 1178.45 634.961 1178.45 651.613C1178.45 672.959 1170.44 690.822 1154.44 705.204C1138.89 718.829 1120.11 725.641 1098.1 725.641C1060.4 725.641 1033.69 707.551 1017.99 671.369L1062.32 651.159C1068.48 661.756 1073.17 668.493 1076.4 671.369C1082.71 677.122 1090.25 679.998 1099.03 679.998C1116.57 679.998 1125.35 672.126 1125.35 656.382C1125.35 647.299 1118.57 638.821 1105.03 630.949C1099.8 628.375 1094.56 625.877 1089.33 623.455C1084.1 621.033 1078.79 618.535 1073.4 615.961C1058.32 608.695 1047.7 601.428 1041.54 594.162C1033.69 584.927 1029.77 573.043 1029.77 558.51C1029.77 539.284 1036.46 523.388 1049.85 510.823C1063.55 498.258 1080.17 491.976 1099.72 491.976C1128.5 491.976 1149.9 506.584 1163.9 535.802Z" fill="#4B5879"/>
<path d="M1434.82 620.73H1273.67C1275.06 638.897 1281.06 653.354 1291.68 664.102C1302.3 674.7 1315.92 679.998 1332.55 679.998C1345.48 679.998 1356.17 676.97 1364.64 670.915C1372.95 664.859 1382.41 653.657 1393.03 637.307L1436.9 661.378C1430.13 672.732 1422.97 682.496 1415.43 690.671C1407.89 698.694 1399.81 705.355 1391.19 710.654C1382.57 715.801 1373.26 719.586 1363.25 722.008C1353.25 724.43 1342.4 725.641 1330.7 725.641C1297.15 725.641 1270.21 715.044 1249.9 693.85C1229.58 672.504 1219.42 644.195 1219.42 608.922C1219.42 573.952 1229.27 545.642 1248.97 523.994C1268.83 502.648 1295.15 491.976 1327.93 491.976C1361.02 491.976 1387.19 502.346 1406.42 523.086C1425.51 543.674 1435.05 572.211 1435.05 608.695L1434.82 620.73ZM1381.49 578.947C1374.26 551.698 1356.79 538.073 1329.08 538.073C1322.77 538.073 1316.85 539.057 1311.31 541.025C1305.77 542.842 1300.69 545.567 1296.07 549.2C1291.61 552.682 1287.76 556.921 1284.53 561.916C1281.29 566.912 1278.83 572.589 1277.14 578.947H1381.49Z" fill="#4B5879"/>
<path d="M1496.57 498.107H1548.52V517.863C1558.06 508.023 1566.53 501.286 1573.91 497.653C1581.46 493.868 1590.38 491.976 1600.7 491.976C1614.39 491.976 1628.71 496.366 1643.64 505.146L1619.86 551.925C1610.01 544.961 1600.39 541.479 1591 541.479C1562.68 541.479 1548.52 562.522 1548.52 604.607V719.283H1496.57V498.107Z" fill="#4B5879"/>
<path d="M1879.7 620.73H1718.55C1719.93 638.897 1725.94 653.354 1736.56 664.102C1747.18 674.7 1760.8 679.998 1777.42 679.998C1790.35 679.998 1801.05 676.97 1809.51 670.915C1817.82 664.859 1827.29 653.657 1837.91 637.307L1881.77 661.378C1875 672.732 1867.84 682.496 1860.3 690.671C1852.76 698.694 1844.68 705.355 1836.06 710.654C1827.44 715.801 1818.13 719.586 1808.13 722.008C1798.12 724.43 1787.27 725.641 1775.57 725.641C1742.02 725.641 1715.09 715.044 1694.77 693.85C1674.45 672.504 1664.3 644.195 1664.3 608.922C1664.3 573.952 1674.15 545.642 1693.85 523.994C1713.7 502.648 1740.02 491.976 1772.8 491.976C1805.89 491.976 1832.06 502.346 1851.3 523.086C1870.38 543.674 1879.93 572.211 1879.93 608.695L1879.7 620.73ZM1826.36 578.947C1819.13 551.698 1801.66 538.073 1773.96 538.073C1767.65 538.073 1761.72 539.057 1756.18 541.025C1750.64 542.842 1745.56 545.567 1740.94 549.2C1736.48 552.682 1732.63 556.921 1729.4 561.916C1726.17 566.912 1723.71 572.589 1722.01 578.947H1826.36Z" fill="#4B5879"/>
<path d="M1941.45 498.107H1993.62V518.544C2011.79 500.832 2032.26 491.976 2055.04 491.976C2081.2 491.976 2101.59 500.075 2116.22 516.273C2128.84 530.049 2135.15 552.53 2135.15 583.716V719.283H2082.97V595.751C2082.97 573.952 2079.89 558.889 2073.74 550.562C2067.73 542.085 2056.81 537.846 2040.95 537.846C2023.71 537.846 2011.48 543.447 2004.24 554.65C1997.16 565.701 1993.62 585.003 1993.62 612.555V719.283H1941.45V498.107Z" fill="#4B5879"/>
<path d="M2371.44 498.107H2423.61V719.283H2371.44V696.121C2350.04 715.801 2327.03 725.641 2302.41 725.641C2271.32 725.641 2245.61 714.59 2225.3 692.488C2205.13 669.931 2195.05 641.773 2195.05 608.014C2195.05 574.86 2205.13 547.232 2225.3 525.129C2245.46 503.027 2270.7 491.976 2301.02 491.976C2327.19 491.976 2350.66 502.573 2371.44 523.767V498.107ZM2248.15 608.014C2248.15 629.208 2253.92 646.466 2265.47 659.788C2277.32 673.261 2292.25 679.998 2310.26 679.998C2329.49 679.998 2345.04 673.488 2356.89 660.469C2368.74 646.996 2374.67 629.889 2374.67 609.149C2374.67 588.409 2368.74 571.302 2356.89 557.829C2345.04 544.658 2329.65 538.073 2310.72 538.073C2292.86 538.073 2277.93 544.734 2265.93 558.056C2254.08 571.529 2248.15 588.182 2248.15 608.014Z" fill="#4B5879"/>
<path d="M2659.67 335.744H2711.85V719.283H2659.67V696.121C2639.2 715.801 2616.04 725.641 2590.18 725.641C2559.4 725.641 2533.85 714.59 2513.53 692.488C2493.37 669.931 2483.29 641.773 2483.29 608.014C2483.29 575.011 2493.37 547.459 2513.53 525.356C2533.54 503.103 2558.7 491.976 2589.02 491.976C2615.34 491.976 2638.89 502.573 2659.67 523.767V335.744ZM2536.39 608.014C2536.39 629.208 2542.16 646.466 2553.7 659.788C2565.55 673.261 2580.48 679.998 2598.49 679.998C2617.73 679.998 2633.27 673.488 2645.13 660.469C2656.98 646.996 2662.9 629.889 2662.9 609.149C2662.9 588.409 2656.98 571.302 2645.13 557.829C2633.27 544.658 2617.88 538.073 2598.95 538.073C2581.1 538.073 2566.17 544.734 2554.16 558.056C2542.31 571.529 2536.39 588.182 2536.39 608.014Z" fill="#4B5879"/>
<path d="M2986.92 620.73H2825.78C2827.16 638.897 2833.16 653.354 2843.78 664.102C2854.4 674.7 2868.02 679.998 2884.65 679.998C2897.58 679.998 2908.27 676.97 2916.74 670.915C2925.05 664.859 2934.51 653.657 2945.13 637.307L2989 661.378C2982.23 672.732 2975.07 682.496 2967.53 690.671C2959.99 698.694 2951.91 705.355 2943.29 710.654C2934.67 715.801 2925.36 719.586 2915.35 722.008C2905.35 724.43 2894.5 725.641 2882.8 725.641C2849.25 725.641 2822.31 715.044 2802 693.85C2781.68 672.504 2771.52 644.195 2771.52 608.922C2771.52 573.952 2781.37 545.642 2801.07 523.994C2820.93 502.648 2847.25 491.976 2880.03 491.976C2913.12 491.976 2939.29 502.346 2958.53 523.086C2977.61 543.674 2987.15 572.211 2987.15 608.695L2986.92 620.73ZM2933.59 578.947C2926.36 551.698 2908.89 538.073 2881.18 538.073C2874.87 538.073 2868.95 539.057 2863.41 541.025C2857.87 542.842 2852.79 545.567 2848.17 549.2C2843.71 552.682 2839.86 556.921 2836.63 561.916C2833.39 566.912 2830.93 572.589 2829.24 578.947H2933.59Z" fill="#4B5879"/>
<path d="M1163.9 535.802L1120.96 558.283C1114.19 544.658 1105.8 537.846 1095.8 537.846C1091.02 537.846 1086.95 539.435 1083.56 542.615C1080.17 545.642 1078.48 549.578 1078.48 554.423C1078.48 562.9 1088.48 571.302 1108.49 579.629C1136.04 591.285 1154.59 602.034 1164.13 611.874C1173.68 621.714 1178.45 634.961 1178.45 651.613C1178.45 672.959 1170.44 690.822 1154.44 705.204C1138.89 718.829 1120.11 725.641 1098.1 725.641C1060.4 725.641 1033.69 707.551 1017.99 671.369L1062.32 651.159C1068.48 661.756 1073.17 668.493 1076.4 671.369C1082.71 677.122 1090.25 679.998 1099.03 679.998C1116.57 679.998 1125.35 672.126 1125.35 656.382C1125.35 647.299 1118.57 638.821 1105.03 630.949C1099.8 628.375 1094.56 625.877 1089.33 623.455C1084.1 621.033 1078.79 618.535 1073.4 615.961C1058.32 608.695 1047.7 601.428 1041.54 594.162C1033.69 584.927 1029.77 573.043 1029.77 558.51C1029.77 539.284 1036.46 523.388 1049.85 510.823C1063.55 498.258 1080.17 491.976 1099.72 491.976C1128.5 491.976 1149.9 506.584 1163.9 535.802Z" stroke="url(#paint0_linear_70_2)"/>
<path d="M1163.9 535.802L1120.96 558.283C1114.19 544.658 1105.8 537.846 1095.8 537.846C1091.02 537.846 1086.95 539.435 1083.56 542.615C1080.17 545.642 1078.48 549.578 1078.48 554.423C1078.48 562.9 1088.48 571.302 1108.49 579.629C1136.04 591.285 1154.59 602.034 1164.13 611.874C1173.68 621.714 1178.45 634.961 1178.45 651.613C1178.45 672.959 1170.44 690.822 1154.44 705.204C1138.89 718.829 1120.11 725.641 1098.1 725.641C1060.4 725.641 1033.69 707.551 1017.99 671.369L1062.32 651.159C1068.48 661.756 1073.17 668.493 1076.4 671.369C1082.71 677.122 1090.25 679.998 1099.03 679.998C1116.57 679.998 1125.35 672.126 1125.35 656.382C1125.35 647.299 1118.57 638.821 1105.03 630.949C1099.8 628.375 1094.56 625.877 1089.33 623.455C1084.1 621.033 1078.79 618.535 1073.4 615.961C1058.32 608.695 1047.7 601.428 1041.54 594.162C1033.69 584.927 1029.77 573.043 1029.77 558.51C1029.77 539.284 1036.46 523.388 1049.85 510.823C1063.55 498.258 1080.17 491.976 1099.72 491.976C1128.5 491.976 1149.9 506.584 1163.9 535.802Z" stroke="#FF8388"/>
<path d="M1434.82 620.73H1273.67C1275.06 638.897 1281.06 653.354 1291.68 664.102C1302.3 674.7 1315.92 679.998 1332.55 679.998C1345.48 679.998 1356.17 676.97 1364.64 670.915C1372.95 664.859 1382.41 653.657 1393.03 637.307L1436.9 661.378C1430.13 672.732 1422.97 682.496 1415.43 690.671C1407.89 698.694 1399.81 705.355 1391.19 710.654C1382.57 715.801 1373.26 719.586 1363.25 722.008C1353.25 724.43 1342.4 725.641 1330.7 725.641C1297.15 725.641 1270.21 715.044 1249.9 693.85C1229.58 672.504 1219.42 644.195 1219.42 608.922C1219.42 573.952 1229.27 545.642 1248.97 523.994C1268.83 502.648 1295.15 491.976 1327.93 491.976C1361.02 491.976 1387.19 502.346 1406.42 523.086C1425.51 543.674 1435.05 572.211 1435.05 608.695L1434.82 620.73ZM1381.49 578.947C1374.26 551.698 1356.79 538.073 1329.08 538.073C1322.77 538.073 1316.85 539.057 1311.31 541.025C1305.77 542.842 1300.69 545.567 1296.07 549.2C1291.61 552.682 1287.76 556.921 1284.53 561.916C1281.29 566.912 1278.83 572.589 1277.14 578.947H1381.49Z" stroke="url(#paint1_linear_70_2)"/>
<path d="M1434.82 620.73H1273.67C1275.06 638.897 1281.06 653.354 1291.68 664.102C1302.3 674.7 1315.92 679.998 1332.55 679.998C1345.48 679.998 1356.17 676.97 1364.64 670.915C1372.95 664.859 1382.41 653.657 1393.03 637.307L1436.9 661.378C1430.13 672.732 1422.97 682.496 1415.43 690.671C1407.89 698.694 1399.81 705.355 1391.19 710.654C1382.57 715.801 1373.26 719.586 1363.25 722.008C1353.25 724.43 1342.4 725.641 1330.7 725.641C1297.15 725.641 1270.21 715.044 1249.9 693.85C1229.58 672.504 1219.42 644.195 1219.42 608.922C1219.42 573.952 1229.27 545.642 1248.97 523.994C1268.83 502.648 1295.15 491.976 1327.93 491.976C1361.02 491.976 1387.19 502.346 1406.42 523.086C1425.51 543.674 1435.05 572.211 1435.05 608.695L1434.82 620.73ZM1381.49 578.947C1374.26 551.698 1356.79 538.073 1329.08 538.073C1322.77 538.073 1316.85 539.057 1311.31 541.025C1305.77 542.842 1300.69 545.567 1296.07 549.2C1291.61 552.682 1287.76 556.921 1284.53 561.916C1281.29 566.912 1278.83 572.589 1277.14 578.947H1381.49Z" stroke="#FF8388"/>
<path d="M1496.57 498.107H1548.52V517.863C1558.06 508.023 1566.53 501.286 1573.91 497.653C1581.46 493.868 1590.38 491.976 1600.7 491.976C1614.39 491.976 1628.71 496.366 1643.64 505.146L1619.86 551.925C1610.01 544.961 1600.39 541.479 1591 541.479C1562.68 541.479 1548.52 562.522 1548.52 604.607V719.283H1496.57V498.107Z" stroke="url(#paint2_linear_70_2)"/>
<path d="M1496.57 498.107H1548.52V517.863C1558.06 508.023 1566.53 501.286 1573.91 497.653C1581.46 493.868 1590.38 491.976 1600.7 491.976C1614.39 491.976 1628.71 496.366 1643.64 505.146L1619.86 551.925C1610.01 544.961 1600.39 541.479 1591 541.479C1562.68 541.479 1548.52 562.522 1548.52 604.607V719.283H1496.57V498.107Z" stroke="#FF8388"/>
<path d="M1879.7 620.73H1718.55C1719.93 638.897 1725.94 653.354 1736.56 664.102C1747.18 674.7 1760.8 679.998 1777.42 679.998C1790.35 679.998 1801.05 676.97 1809.51 670.915C1817.82 664.859 1827.29 653.657 1837.91 637.307L1881.77 661.378C1875 672.732 1867.84 682.496 1860.3 690.671C1852.76 698.694 1844.68 705.355 1836.06 710.654C1827.44 715.801 1818.13 719.586 1808.13 722.008C1798.12 724.43 1787.27 725.641 1775.57 725.641C1742.02 725.641 1715.09 715.044 1694.77 693.85C1674.45 672.504 1664.3 644.195 1664.3 608.922C1664.3 573.952 1674.15 545.642 1693.85 523.994C1713.7 502.648 1740.02 491.976 1772.8 491.976C1805.89 491.976 1832.06 502.346 1851.3 523.086C1870.38 543.674 1879.93 572.211 1879.93 608.695L1879.7 620.73ZM1826.36 578.947C1819.13 551.698 1801.66 538.073 1773.96 538.073C1767.65 538.073 1761.72 539.057 1756.18 541.025C1750.64 542.842 1745.56 545.567 1740.94 549.2C1736.48 552.682 1732.63 556.921 1729.4 561.916C1726.17 566.912 1723.71 572.589 1722.01 578.947H1826.36Z" stroke="url(#paint3_linear_70_2)"/>
<path d="M1879.7 620.73H1718.55C1719.93 638.897 1725.94 653.354 1736.56 664.102C1747.18 674.7 1760.8 679.998 1777.42 679.998C1790.35 679.998 1801.05 676.97 1809.51 670.915C1817.82 664.859 1827.29 653.657 1837.91 637.307L1881.77 661.378C1875 672.732 1867.84 682.496 1860.3 690.671C1852.76 698.694 1844.68 705.355 1836.06 710.654C1827.44 715.801 1818.13 719.586 1808.13 722.008C1798.12 724.43 1787.27 725.641 1775.57 725.641C1742.02 725.641 1715.09 715.044 1694.77 693.85C1674.45 672.504 1664.3 644.195 1664.3 608.922C1664.3 573.952 1674.15 545.642 1693.85 523.994C1713.7 502.648 1740.02 491.976 1772.8 491.976C1805.89 491.976 1832.06 502.346 1851.3 523.086C1870.38 543.674 1879.93 572.211 1879.93 608.695L1879.7 620.73ZM1826.36 578.947C1819.13 551.698 1801.66 538.073 1773.96 538.073C1767.65 538.073 1761.72 539.057 1756.18 541.025C1750.64 542.842 1745.56 545.567 1740.94 549.2C1736.48 552.682 1732.63 556.921 1729.4 561.916C1726.17 566.912 1723.71 572.589 1722.01 578.947H1826.36Z" stroke="#FF8388"/>
<path d="M1941.45 498.107H1993.62V518.544C2011.79 500.832 2032.26 491.976 2055.04 491.976C2081.2 491.976 2101.59 500.075 2116.22 516.273C2128.84 530.049 2135.15 552.53 2135.15 583.716V719.283H2082.97V595.751C2082.97 573.952 2079.89 558.889 2073.74 550.562C2067.73 542.085 2056.81 537.846 2040.95 537.846C2023.71 537.846 2011.48 543.447 2004.24 554.65C1997.16 565.701 1993.62 585.003 1993.62 612.555V719.283H1941.45V498.107Z" stroke="url(#paint4_linear_70_2)"/>
<path d="M1941.45 498.107H1993.62V518.544C2011.79 500.832 2032.26 491.976 2055.04 491.976C2081.2 491.976 2101.59 500.075 2116.22 516.273C2128.84 530.049 2135.15 552.53 2135.15 583.716V719.283H2082.97V595.751C2082.97 573.952 2079.89 558.889 2073.74 550.562C2067.73 542.085 2056.81 537.846 2040.95 537.846C2023.71 537.846 2011.48 543.447 2004.24 554.65C1997.16 565.701 1993.62 585.003 1993.62 612.555V719.283H1941.45V498.107Z" stroke="#FF8388"/>
<path d="M2371.44 498.107H2423.61V719.283H2371.44V696.121C2350.04 715.801 2327.03 725.641 2302.41 725.641C2271.32 725.641 2245.61 714.59 2225.3 692.488C2205.13 669.931 2195.05 641.773 2195.05 608.014C2195.05 574.86 2205.13 547.232 2225.3 525.129C2245.46 503.027 2270.7 491.976 2301.02 491.976C2327.19 491.976 2350.66 502.573 2371.44 523.767V498.107ZM2248.15 608.014C2248.15 629.208 2253.92 646.466 2265.47 659.788C2277.32 673.261 2292.25 679.998 2310.26 679.998C2329.49 679.998 2345.04 673.488 2356.89 660.469C2368.74 646.996 2374.67 629.889 2374.67 609.149C2374.67 588.409 2368.74 571.302 2356.89 557.829C2345.04 544.658 2329.65 538.073 2310.72 538.073C2292.86 538.073 2277.93 544.734 2265.93 558.056C2254.08 571.529 2248.15 588.182 2248.15 608.014Z" stroke="url(#paint5_linear_70_2)"/>
<path d="M2371.44 498.107H2423.61V719.283H2371.44V696.121C2350.04 715.801 2327.03 725.641 2302.41 725.641C2271.32 725.641 2245.61 714.59 2225.3 692.488C2205.13 669.931 2195.05 641.773 2195.05 608.014C2195.05 574.86 2205.13 547.232 2225.3 525.129C2245.46 503.027 2270.7 491.976 2301.02 491.976C2327.19 491.976 2350.66 502.573 2371.44 523.767V498.107ZM2248.15 608.014C2248.15 629.208 2253.92 646.466 2265.47 659.788C2277.32 673.261 2292.25 679.998 2310.26 679.998C2329.49 679.998 2345.04 673.488 2356.89 660.469C2368.74 646.996 2374.67 629.889 2374.67 609.149C2374.67 588.409 2368.74 571.302 2356.89 557.829C2345.04 544.658 2329.65 538.073 2310.72 538.073C2292.86 538.073 2277.93 544.734 2265.93 558.056C2254.08 571.529 2248.15 588.182 2248.15 608.014Z" stroke="#FF8388"/>
<path d="M2659.67 335.744H2711.85V719.283H2659.67V696.121C2639.2 715.801 2616.04 725.641 2590.18 725.641C2559.4 725.641 2533.85 714.59 2513.53 692.488C2493.37 669.931 2483.29 641.773 2483.29 608.014C2483.29 575.011 2493.37 547.459 2513.53 525.356C2533.54 503.103 2558.7 491.976 2589.02 491.976C2615.34 491.976 2638.89 502.573 2659.67 523.767V335.744ZM2536.39 608.014C2536.39 629.208 2542.16 646.466 2553.7 659.788C2565.55 673.261 2580.48 679.998 2598.49 679.998C2617.73 679.998 2633.27 673.488 2645.13 660.469C2656.98 646.996 2662.9 629.889 2662.9 609.149C2662.9 588.409 2656.98 571.302 2645.13 557.829C2633.27 544.658 2617.88 538.073 2598.95 538.073C2581.1 538.073 2566.17 544.734 2554.16 558.056C2542.31 571.529 2536.39 588.182 2536.39 608.014Z" stroke="url(#paint6_linear_70_2)"/>
<path d="M2659.67 335.744H2711.85V719.283H2659.67V696.121C2639.2 715.801 2616.04 725.641 2590.18 725.641C2559.4 725.641 2533.85 714.59 2513.53 692.488C2493.37 669.931 2483.29 641.773 2483.29 608.014C2483.29 575.011 2493.37 547.459 2513.53 525.356C2533.54 503.103 2558.7 491.976 2589.02 491.976C2615.34 491.976 2638.89 502.573 2659.67 523.767V335.744ZM2536.39 608.014C2536.39 629.208 2542.16 646.466 2553.7 659.788C2565.55 673.261 2580.48 679.998 2598.49 679.998C2617.73 679.998 2633.27 673.488 2645.13 660.469C2656.98 646.996 2662.9 629.889 2662.9 609.149C2662.9 588.409 2656.98 571.302 2645.13 557.829C2633.27 544.658 2617.88 538.073 2598.95 538.073C2581.1 538.073 2566.17 544.734 2554.16 558.056C2542.31 571.529 2536.39 588.182 2536.39 608.014Z" stroke="#FF8388"/>
<path d="M2986.92 620.73H2825.78C2827.16 638.897 2833.16 653.354 2843.78 664.102C2854.4 674.7 2868.02 679.998 2884.65 679.998C2897.58 679.998 2908.27 676.97 2916.74 670.915C2925.05 664.859 2934.51 653.657 2945.13 637.307L2989 661.378C2982.23 672.732 2975.07 682.496 2967.53 690.671C2959.99 698.694 2951.91 705.355 2943.29 710.654C2934.67 715.801 2925.36 719.586 2915.35 722.008C2905.35 724.43 2894.5 725.641 2882.8 725.641C2849.25 725.641 2822.31 715.044 2802 693.85C2781.68 672.504 2771.52 644.195 2771.52 608.922C2771.52 573.952 2781.37 545.642 2801.07 523.994C2820.93 502.648 2847.25 491.976 2880.03 491.976C2913.12 491.976 2939.29 502.346 2958.53 523.086C2977.61 543.674 2987.15 572.211 2987.15 608.695L2986.92 620.73ZM2933.59 578.947C2926.36 551.698 2908.89 538.073 2881.18 538.073C2874.87 538.073 2868.95 539.057 2863.41 541.025C2857.87 542.842 2852.79 545.567 2848.17 549.2C2843.71 552.682 2839.86 556.921 2836.63 561.916C2833.39 566.912 2830.93 572.589 2829.24 578.947H2933.59Z" stroke="url(#paint7_linear_70_2)"/>
<path d="M2986.92 620.73H2825.78C2827.16 638.897 2833.16 653.354 2843.78 664.102C2854.4 674.7 2868.02 679.998 2884.65 679.998C2897.58 679.998 2908.27 676.97 2916.74 670.915C2925.05 664.859 2934.51 653.657 2945.13 637.307L2989 661.378C2982.23 672.732 2975.07 682.496 2967.53 690.671C2959.99 698.694 2951.91 705.355 2943.29 710.654C2934.67 715.801 2925.36 719.586 2915.35 722.008C2905.35 724.43 2894.5 725.641 2882.8 725.641C2849.25 725.641 2822.31 715.044 2802 693.85C2781.68 672.504 2771.52 644.195 2771.52 608.922C2771.52 573.952 2781.37 545.642 2801.07 523.994C2820.93 502.648 2847.25 491.976 2880.03 491.976C2913.12 491.976 2939.29 502.346 2958.53 523.086C2977.61 543.674 2987.15 572.211 2987.15 608.695L2986.92 620.73ZM2933.59 578.947C2926.36 551.698 2908.89 538.073 2881.18 538.073C2874.87 538.073 2868.95 539.057 2863.41 541.025C2857.87 542.842 2852.79 545.567 2848.17 549.2C2843.71 552.682 2839.86 556.921 2836.63 561.916C2833.39 566.912 2830.93 572.589 2829.24 578.947H2933.59Z" stroke="#FF8388"/>
<path d="M517.522 0.228288C485.872 1.13263 454.222 4.75001 423.115 11.0804C196.864 57.0212 28.6673 236.443 2.98565 466.509C-22.6959 696.755 119.095 977.645 359.092 1031.36C472.127 1056.68 596.375 1025.39 684.271 949.791C779.945 867.314 827.148 743.419 870.554 624.769C906.363 527.1 942.715 426.537 940.002 322.537C934.034 98.621 719.177 -5.55952 517.522 0.228288Z" fill="url(#paint8_radial_70_2)"/>
<path fill-rule="evenodd" clip-rule="evenodd" d="M592.065 216.609C610.667 216.656 625.71 231.775 625.664 250.379L625.215 431.158C625.169 449.762 610.051 464.806 591.448 464.76C572.845 464.714 557.802 449.595 557.848 430.991L558.297 250.211C558.344 231.607 573.462 216.563 592.065 216.609ZM692.015 271.848C710.617 271.907 725.65 287.037 725.59 305.641L725.366 375.931C725.306 394.535 710.178 409.569 691.575 409.509C672.972 409.45 657.94 394.32 657.999 375.716L658.224 305.425C658.283 286.821 673.412 271.788 692.015 271.848ZM487.713 341.249C506.315 341.333 521.328 356.482 521.245 375.086L519.897 675.562C519.814 694.165 504.666 709.179 486.063 709.096C467.461 709.012 452.448 693.863 452.531 675.259L453.879 374.783C453.962 356.18 469.11 341.166 487.713 341.249ZM382.344 585.571C400.946 585.502 416.083 600.527 416.152 619.131L416.826 800.135C416.895 818.739 401.871 833.877 383.268 833.946C364.665 834.015 349.529 818.99 349.459 800.386L348.786 619.382C348.717 600.778 363.741 585.64 382.344 585.571ZM282.659 641.024C301.261 640.965 316.39 655.998 316.45 674.602L316.675 744.668C316.734 763.272 301.702 778.402 283.099 778.461C264.496 778.521 249.368 763.488 249.308 744.884L249.083 674.818C249.024 656.214 264.056 641.084 282.659 641.024Z" fill="white"/>
<defs>
<linearGradient id="paint0_linear_70_2" x1="3979.35" y1="555.131" x2="3721.02" y2="1315.4" gradientUnits="userSpaceOnUse">
<stop offset="0.0387644" stop-color="#A46DFF"/>
<stop offset="0.403354" stop-color="#FF8388"/>
<stop offset="0.700235" stop-color="#EEC14D"/>
<stop offset="1" stop-color="#82C0FF"/>
</linearGradient>
<linearGradient id="paint1_linear_70_2" x1="3979.35" y1="555.131" x2="3721.02" y2="1315.4" gradientUnits="userSpaceOnUse">
<stop offset="0.0387644" stop-color="#A46DFF"/>
<stop offset="0.403354" stop-color="#FF8388"/>
<stop offset="0.700235" stop-color="#EEC14D"/>
<stop offset="1" stop-color="#82C0FF"/>
</linearGradient>
<linearGradient id="paint2_linear_70_2" x1="3979.35" y1="555.131" x2="3721.02" y2="1315.4" gradientUnits="userSpaceOnUse">
<stop offset="0.0387644" stop-color="#A46DFF"/>
<stop offset="0.403354" stop-color="#FF8388"/>
<stop offset="0.700235" stop-color="#EEC14D"/>
<stop offset="1" stop-color="#82C0FF"/>
</linearGradient>
<linearGradient id="paint3_linear_70_2" x1="3979.35" y1="555.131" x2="3721.02" y2="1315.4" gradientUnits="userSpaceOnUse">
<stop offset="0.0387644" stop-color="#A46DFF"/>
<stop offset="0.403354" stop-color="#FF8388"/>
<stop offset="0.700235" stop-color="#EEC14D"/>
<stop offset="1" stop-color="#82C0FF"/>
</linearGradient>
<linearGradient id="paint4_linear_70_2" x1="3979.35" y1="555.131" x2="3721.02" y2="1315.4" gradientUnits="userSpaceOnUse">
<stop offset="0.0387644" stop-color="#A46DFF"/>
<stop offset="0.403354" stop-color="#FF8388"/>
<stop offset="0.700235" stop-color="#EEC14D"/>
<stop offset="1" stop-color="#82C0FF"/>
</linearGradient>
<linearGradient id="paint5_linear_70_2" x1="3979.35" y1="555.131" x2="3721.02" y2="1315.4" gradientUnits="userSpaceOnUse">
<stop offset="0.0387644" stop-color="#A46DFF"/>
<stop offset="0.403354" stop-color="#FF8388"/>
<stop offset="0.700235" stop-color="#EEC14D"/>
<stop offset="1" stop-color="#82C0FF"/>
</linearGradient>
<linearGradient id="paint6_linear_70_2" x1="3979.35" y1="555.131" x2="3721.02" y2="1315.4" gradientUnits="userSpaceOnUse">
<stop offset="0.0387644" stop-color="#A46DFF"/>
<stop offset="0.403354" stop-color="#FF8388"/>
<stop offset="0.700235" stop-color="#EEC14D"/>
<stop offset="1" stop-color="#82C0FF"/>
</linearGradient>
<linearGradient id="paint7_linear_70_2" x1="3979.35" y1="555.131" x2="3721.02" y2="1315.4" gradientUnits="userSpaceOnUse">
<stop offset="0.0387644" stop-color="#A46DFF"/>
<stop offset="0.403354" stop-color="#FF8388"/>
<stop offset="0.700235" stop-color="#EEC14D"/>
<stop offset="1" stop-color="#82C0FF"/>
</linearGradient>
<radialGradient id="paint8_radial_70_2" cx="0" cy="0" r="1" gradientUnits="userSpaceOnUse" gradientTransform="translate(-67.4229 803.341) scale(1455.72 1455.82)">
<stop offset="0.0103967" stop-color="#C5D1E7"/>
<stop offset="0.14061" stop-color="#82C0FF"/>
<stop offset="0.385412" stop-color="#A46DFF"/>
<stop offset="0.625005" stop-color="#FF8488"/>
<stop offset="0.791679" stop-color="#EEC14C"/>
</radialGradient>
</defs>
</svg>
